<svg width="315" height="70" viewBox="0 0 315 70" fill="none" xmlns="http://www.w3.org/2000/svg">
<g clip-path="url(#clip0_1213_248)">
<path d="M86.1724 0.291687V24.6459H92.5448V5.97919H100.945V24.6459H107.462V0.291687H86.1724Z" fill="#DB2B21"/>
<path d="M120.931 19.1042C122.09 19.1042 123.103 18.9583 123.683 18.8125C124.262 18.6667 124.697 18.2292 124.986 17.6458C125.276 17.0625 125.421 16.1875 125.421 15.0208V9.77083C125.421 8.89583 125.276 8.16667 125.131 7.58333C124.986 7 124.697 6.70833 124.407 6.41667C124.117 6.125 123.683 5.97917 123.103 5.83333C122.524 5.6875 121.8 5.6875 120.931 5.6875C119.772 5.6875 118.759 5.83333 118.179 5.97917C117.6 6.125 117.166 6.5625 116.876 7C116.586 7.58333 116.441 8.45833 116.441 9.625V15.1667C116.441 16.3333 116.586 17.2083 116.876 17.7917C117.166 18.375 117.6 18.6667 118.179 18.9583C118.759 19.25 119.628 19.1042 120.931 19.1042ZM120.931 24.7917C119.193 24.7917 117.6 24.6458 116.297 24.3542C114.993 24.0625 113.834 23.625 112.821 23.0417C111.807 22.4583 111.083 21.4375 110.503 20.2708C109.924 19.1042 109.634 17.6458 109.634 15.75V9.04167C109.634 7.29167 109.924 5.6875 110.503 4.52083C111.083 3.35417 111.807 2.47917 112.821 1.75C113.834 1.02083 114.993 0.729167 116.297 0.4375C117.6 0.145833 119.193 0 120.931 0C122.669 0 124.262 0.145833 125.566 0.4375C126.869 0.729167 128.028 1.16667 129.041 1.75C130.055 2.33333 130.779 3.35417 131.359 4.52083C131.938 5.6875 132.228 7.14583 132.228 9.04167V15.8958C132.228 17.6458 131.938 19.25 131.359 20.4167C130.779 21.5833 130.055 22.4583 129.041 23.1875C128.028 23.7708 126.869 24.2083 125.566 24.5C124.262 24.6458 122.669 24.7917 120.931 24.7917ZM140.628 12.6875H144.972C145.841 12.6875 146.421 12.5417 146.855 12.3958C147.29 12.25 147.434 11.9583 147.579 11.375C147.724 10.9375 147.724 10.0625 147.724 9.04167C147.724 8.16667 147.724 7.4375 147.579 7C147.434 6.5625 147.145 6.27083 146.71 5.97917C146.276 5.6875 145.697 5.6875 144.828 5.6875H140.483V12.6875H140.628ZM140.628 24.6458H134.255V0.291667H146.421C147.869 0.291667 149.172 0.4375 150.331 0.729167C151.345 1.02083 152.214 1.60417 152.793 2.33333C153.372 3.0625 153.952 3.9375 154.241 5.10417C154.531 6.27083 154.676 7.58333 154.676 9.1875C154.676 10.9375 154.531 12.3958 154.241 13.5625C153.952 14.7292 153.517 15.6042 152.938 16.3333C152.359 17.0625 151.49 17.5 150.476 17.7917C149.462 18.0833 148.014 18.2292 146.276 18.2292H140.628V24.6458Z" fill="#DB2B21"/>
<path d="M154.386 0.291687V5.97919H160.614V24.6459H167.131V5.97919H173.503V0.291687H154.386ZM184.655 5.10419L187.697 15.6042H181.759L184.655 5.10419ZM179.586 0.291687L172.345 24.6459H179.007L180.166 20.4167H188.855L190.159 24.6459H196.676L189.29 0.291687H179.586Z" fill="#DB2B21"/>
<path d="M200.297 0.291687H219.848V24.6459H213.331V5.97919H206.379V16.1875C206.379 17.9375 206.09 19.5417 205.655 20.8542C205.076 22.1667 204.352 23.1875 203.193 23.7709C202.179 24.5 200.731 24.7917 199.138 24.7917C197.979 24.7917 196.821 24.6459 195.807 24.5V19.25C196.241 19.3959 196.966 19.5417 197.834 19.5417C198.703 19.5417 199.283 19.25 199.717 18.8125C200.007 18.375 200.297 17.5 200.297 16.3334V0.291687Z" fill="#DB2B21"/>
<path d="M86.1724 34.5625H103.841V56.5833H101.379V36.75H88.6345V56.5833H86.1724V34.5625Z" fill="#B4B1B1"/>
<path d="M109.2 50.3125C109.345 51.4791 109.634 52.3541 110.069 52.9375C110.503 53.5208 111.228 53.9583 112.097 54.25C112.966 54.5416 114.124 54.5416 115.717 54.5416C117.31 54.5416 118.469 54.3958 119.338 54.25C120.207 53.9583 120.786 53.5208 121.366 52.9375C121.8 52.3541 122.09 51.4791 122.234 50.3125C122.379 49.1458 122.524 47.5416 122.524 45.5C122.524 43.3125 122.524 41.7083 122.234 40.6875C122.09 39.5208 121.8 38.6458 121.366 38.0625C120.931 37.4791 120.207 37.0416 119.483 36.75C118.469 36.6041 117.31 36.4583 115.717 36.4583C114.124 36.4583 112.966 36.6041 112.097 36.75C111.228 37.0416 110.648 37.3333 110.214 38.0625C109.779 38.6458 109.49 39.5208 109.345 40.6875C109.2 41.8541 109.055 43.4583 109.055 45.5C108.91 47.6875 109.055 49.2916 109.2 50.3125ZM106.883 39.6666C107.172 38.2083 107.607 37.0416 108.331 36.3125C109.055 35.5833 109.924 35 111.083 34.7083C112.241 34.4166 113.834 34.2708 115.717 34.2708C117.6 34.2708 119.193 34.4166 120.352 34.7083C121.51 35 122.379 35.5833 123.103 36.3125C123.828 37.0416 124.262 38.2083 124.552 39.6666C124.841 41.125 124.986 43.0208 124.986 45.5C124.986 47.9791 124.841 49.875 124.552 51.3333C124.262 52.7916 123.828 53.9583 123.103 54.6875C122.379 55.4166 121.51 56 120.352 56.2916C119.193 56.5833 117.6 56.7291 115.717 56.7291C113.834 56.7291 112.241 56.5833 111.083 56.2916C109.924 56 109.055 55.4166 108.331 54.6875C107.607 53.9583 107.172 52.7916 106.883 51.3333C106.593 49.875 106.448 47.9791 106.448 45.5C106.593 43.1666 106.593 41.125 106.883 39.6666ZM141.641 49.1458H143.959C143.959 51.0416 143.669 52.6458 143.234 53.6666C142.8 54.6875 141.931 55.5625 140.628 56C139.324 56.4375 137.586 56.7291 135.269 56.7291C133.531 56.7291 132.083 56.5833 131.069 56.2916C130.055 56 129.041 55.4166 128.462 54.6875C127.738 53.9583 127.303 52.7916 127.014 51.3333C126.724 49.875 126.579 47.9791 126.579 45.6458C126.579 43.3125 126.724 41.4166 127.014 39.9583C127.303 38.5 127.738 37.3333 128.462 36.6041C129.186 35.7291 130.055 35.2916 131.069 34.8541C132.228 34.5625 133.531 34.4166 135.269 34.4166C137.007 34.4166 138.455 34.5625 139.469 34.8541C140.483 35.1458 141.352 35.5833 141.931 36.1666C142.51 36.75 142.945 37.4791 143.09 38.3541C143.379 39.2291 143.524 40.3958 143.524 41.7083H141.207C141.062 40.25 140.772 39.2291 140.628 38.5C140.483 37.7708 139.759 37.3333 139.034 37.0416C138.31 36.75 137.007 36.4583 135.269 36.4583C133.966 36.4583 132.952 36.6041 132.083 36.8958C131.359 37.1875 130.634 37.625 130.2 38.2083C129.766 38.7916 129.476 39.8125 129.186 40.9791C128.802 44.0782 128.802 47.2134 129.186 50.3125C129.331 51.4791 129.766 52.3541 130.2 52.9375C130.634 53.5208 131.359 53.9583 132.083 54.25C132.807 54.5416 133.966 54.5416 135.269 54.5416C136.572 54.5416 137.731 54.3958 138.455 54.25C139.324 54.1041 139.903 53.8125 140.338 53.375C140.772 52.9375 141.062 52.5 141.352 51.7708C141.497 51.1875 141.641 50.3125 141.641 49.1458Z" fill="#B4B1B1"/>
<path d="M151.49 56.5833V36.75H144.248V34.5625H161.048V36.75H153.952V56.5833H151.49ZM176.255 49.875L171.476 36.3125L166.697 49.875H176.255ZM161.483 56.5833L169.448 34.5625H172.924L181.034 56.5833H178.428L176.834 52.0625H165.828L164.09 56.5833H161.483Z" fill="#B4B1B1"/>
<path d="M185.669 46.2292V54.25H192.476C193.49 54.25 194.359 54.25 194.938 54.1042C195.517 53.9583 196.097 53.8125 196.386 53.5208C196.821 53.2292 197.11 52.7917 197.255 52.3542C197.4 51.7708 197.545 51.0417 197.545 50.1667C197.545 49 197.4 48.125 197.255 47.5417C196.966 46.9583 196.676 46.6667 196.097 46.375C195.517 46.2292 194.648 46.0833 193.49 46.0833H185.669V46.2292ZM185.669 36.75V44.1875H192.621C193.779 44.1875 194.503 44.0417 195.228 43.8958C195.807 43.6042 196.241 43.3125 196.531 42.7292C196.821 42.1458 196.966 41.4167 196.966 40.25C196.966 38.9375 196.676 37.9167 196.241 37.4792C195.807 37.0417 194.938 36.75 193.634 36.75H185.669ZM194.359 56.5833H183.207V34.5625H193.779C195.662 34.5625 197.11 35 197.979 35.875C198.848 36.75 199.283 38.0625 199.283 40.1042C199.283 40.9792 199.283 41.8542 199.138 42.4375C198.993 43.0208 198.703 43.6042 198.414 44.0417C198.124 44.4792 197.4 44.9167 196.676 45.2083C197.545 45.5 198.269 45.7917 198.848 46.2292C199.283 46.6667 199.717 47.25 199.862 47.8333C200.007 48.4167 200.152 49.2917 200.152 50.3125C200.152 52.3542 199.717 53.9583 198.848 54.9792C197.834 56 196.386 56.5833 194.359 56.5833Z" fill="#B4B1B1"/>
<path d="M216.228 34.5625H218.69V54.3958H229.841V34.5625H232.303V54.3958H233.752V61.6875H231.579V56.5833H202.759V34.5625H205.076V54.3958H216.228V34.5625ZM236.214 34.5625H238.676V54.8333L251.131 34.5625H255.041V56.5833H252.579V36.4583L240.124 56.5833H236.214V34.5625ZM260.979 34.5625V44.1875H263.152L272.131 34.5625H275.317L265.324 45.2083L276.476 56.5833H273.145L263.152 46.375H260.979V56.5833H258.517V34.5625H260.979Z" fill="#B4B1B1"/>
<path d="M280.097 50.3125C280.241 51.4791 280.531 52.3541 280.966 52.9375C281.4 53.5208 282.124 53.9583 282.993 54.25C283.862 54.5416 285.021 54.5416 286.614 54.5416C288.207 54.5416 289.365 54.3958 290.234 54.25C291.103 53.9583 291.683 53.5208 292.262 52.9375C292.697 52.3541 292.986 51.4791 293.131 50.3125C293.276 49.1458 293.421 47.5416 293.421 45.5C293.421 43.3125 293.276 41.7083 293.131 40.6875C292.986 39.5208 292.697 38.6458 292.262 38.0625C291.828 37.4791 291.103 37.0416 290.379 36.75C289.51 36.4583 288.352 36.4583 286.759 36.4583C285.166 36.4583 284.007 36.6041 283.138 36.75C282.269 37.0416 281.69 37.3333 281.255 38.0625C280.821 38.6458 280.531 39.5208 280.386 40.6875C280.241 41.8541 280.097 43.4583 280.097 45.5C279.807 47.6875 279.952 49.2916 280.097 50.3125ZM277.779 39.6666C278.069 38.2083 278.503 37.0416 279.228 36.3125C279.952 35.5833 280.821 35 281.979 34.7083C283.138 34.4166 284.731 34.2708 286.614 34.2708C288.497 34.2708 290.09 34.4166 291.248 34.7083C292.407 35 293.276 35.5833 294 36.3125C294.724 37.0416 295.159 38.2083 295.448 39.6666C295.738 41.125 295.883 43.0208 295.883 45.5C295.883 47.9791 295.738 49.875 295.448 51.3333C295.159 52.7916 294.724 53.9583 294 54.6875C293.276 55.4166 292.407 56 291.248 56.2916C290.09 56.5833 288.497 56.7291 286.614 56.7291C284.731 56.7291 283.138 56.5833 281.979 56.2916C280.821 56 279.952 55.4166 279.228 54.6875C278.503 53.9583 278.069 52.7916 277.779 51.3333C277.49 49.875 277.345 47.9791 277.345 45.5C277.345 43.1666 277.49 41.125 277.779 39.6666ZM300.662 46.2291V54.25H307.469C308.483 54.25 309.352 54.25 309.931 54.1041C310.51 53.9583 311.09 53.8125 311.379 53.5208C311.814 53.2291 312.103 52.7916 312.248 52.3541C312.393 51.7708 312.538 51.0416 312.538 50.1666C312.538 49 312.393 48.125 312.248 47.5416C311.959 46.9583 311.669 46.6666 311.09 46.375C310.51 46.2291 309.641 46.0833 308.483 46.0833H300.662V46.2291ZM300.662 36.75V44.1875H307.614C308.772 44.1875 309.497 44.0416 310.221 43.8958C310.8 43.6041 311.234 43.3125 311.524 42.7291C311.814 42.1458 311.959 41.4166 311.959 40.25C311.959 38.9375 311.669 37.9166 311.234 37.4791C310.8 37.0416 309.931 36.75 308.628 36.75H300.662ZM309.352 56.5833H298.2V34.5625H308.772C310.655 34.5625 312.103 35 312.972 35.875C313.841 36.75 314.276 38.0625 314.276 40.1041C314.276 40.9791 314.276 41.8541 314.131 42.4375C313.986 43.0208 313.697 43.6041 313.407 44.0416C313.117 44.4791 312.393 44.9166 311.669 45.2083C312.538 45.5 313.262 45.7916 313.841 46.2291C314.276 46.6666 314.71 47.25 314.855 47.8333C315 48.4166 315.145 49.2916 315.145 50.3125C315.145 52.3541 314.71 53.9583 313.841 54.9791C312.828 56 311.379 56.5833 309.352 56.5833Z" fill="#B4B1B1"/>
<path d="M11.8759 23.7708H45.9103V58.0417H11.8759V23.7708ZM0 70H57.7862V11.8125H0V70Z" fill="#B4B1B1"/>
<path d="M23.6069 11.9583H57.6414V46.2292H23.6069V11.9583ZM11.731 58.1875H69.5172V0H11.731V58.1875Z" fill="#DB2B21"/>
<path d="M45.9103 11.9583V58.1875L57.7862 70V11.8125L45.9103 11.9583Z" fill="#B4B1B1"/>
</g>
<defs>
<clipPath id="clip0_1213_248">
<rect width="315" height="70" fill="white"/>
</clipPath>
</defs>
</svg>
