<svg width="315" height="75" viewBox="0 0 315 75" fill="none" xmlns="http://www.w3.org/2000/svg">
<path fill-rule="evenodd" clip-rule="evenodd" d="M123.368 24.19V26.6295H125.849V24.19H123.368Z" fill="#0065DD"/>
<path fill-rule="evenodd" clip-rule="evenodd" d="M123.368 12.1039V14.5435H125.849V12.1039H123.368Z" fill="#0065DD"/>
<path fill-rule="evenodd" clip-rule="evenodd" d="M90.4713 68.5167V70.9478H92.9524V68.5167H90.4713Z" fill="#0065DD"/>
<path fill-rule="evenodd" clip-rule="evenodd" d="M74.0188 68.5167V70.9478H76.5087V68.5167H74.0188Z" fill="#0065DD"/>
<path fill-rule="evenodd" clip-rule="evenodd" d="M139.82 68.5167V70.9478H142.301V68.5167H139.82Z" fill="#0065DD"/>
<path fill-rule="evenodd" clip-rule="evenodd" d="M139.82 24.19V26.6295H142.301V24.19H139.82Z" fill="#0065DD"/>
<path fill-rule="evenodd" clip-rule="evenodd" d="M143.929 24.19V26.6295H146.41V24.19H143.929Z" fill="#0065DD"/>
<path fill-rule="evenodd" clip-rule="evenodd" d="M106.915 68.5167V70.9478H109.405V68.5167H106.915Z" fill="#0065DD"/>
<path fill-rule="evenodd" clip-rule="evenodd" d="M41.1225 24.19V26.6295H43.6035V24.19H41.1225Z" fill="#0065DD"/>
<path fill-rule="evenodd" clip-rule="evenodd" d="M65.7924 20.1641V22.5952H68.2823V20.1641H65.7924Z" fill="#0065DD"/>
<path fill-rule="evenodd" clip-rule="evenodd" d="M65.7924 24.19V26.6295H68.2823V24.19H65.7924Z" fill="#0065DD"/>
<path fill-rule="evenodd" clip-rule="evenodd" d="M131.594 24.19V26.6295H134.075V24.19H131.594Z" fill="#0065DD"/>
<path fill-rule="evenodd" clip-rule="evenodd" d="M131.594 12.1039V14.5435H134.075V12.1039H131.594Z" fill="#0065DD"/>
<path fill-rule="evenodd" clip-rule="evenodd" d="M139.82 12.1039V14.5435H142.301V12.1039H139.82Z" fill="#0065DD"/>
<path fill-rule="evenodd" clip-rule="evenodd" d="M98.6978 68.5167V70.9478H101.179V68.5167H98.6978Z" fill="#0065DD"/>
<path fill-rule="evenodd" clip-rule="evenodd" d="M82.2452 68.5167V70.9478H84.7264V68.5167H82.2452Z" fill="#0065DD"/>
<path fill-rule="evenodd" clip-rule="evenodd" d="M115.141 68.5167V70.9478H117.631V68.5167H115.141Z" fill="#0065DD"/>
<path fill-rule="evenodd" clip-rule="evenodd" d="M115.141 24.19V26.6295H117.631V24.19H115.141Z" fill="#0065DD"/>
<path fill-rule="evenodd" clip-rule="evenodd" d="M115.141 20.1641V22.5952H117.631V20.1641H115.141Z" fill="#0065DD"/>
<path fill-rule="evenodd" clip-rule="evenodd" d="M57.5748 36.2844V38.7155H60.056V36.2844H57.5748Z" fill="#0065DD"/>
<path fill-rule="evenodd" clip-rule="evenodd" d="M123.368 36.2844V38.7155H125.849V36.2844H123.368Z" fill="#0065DD"/>
<path fill-rule="evenodd" clip-rule="evenodd" d="M90.4713 36.2844V38.7155H92.9524V36.2844H90.4713Z" fill="#0065DD"/>
<path fill-rule="evenodd" clip-rule="evenodd" d="M24.6704 36.2844V38.7155H27.1602V36.2844H24.6704Z" fill="#0065DD"/>
<path fill-rule="evenodd" clip-rule="evenodd" d="M74.0188 36.2844V38.7155H76.5087V36.2844H74.0188Z" fill="#0065DD"/>
<path fill-rule="evenodd" clip-rule="evenodd" d="M106.915 36.2844V38.7155H109.405V36.2844H106.915Z" fill="#0065DD"/>
<path fill-rule="evenodd" clip-rule="evenodd" d="M41.1225 36.2844V38.7155H43.6035V36.2844H41.1225Z" fill="#0065DD"/>
<path fill-rule="evenodd" clip-rule="evenodd" d="M65.7924 36.2844V38.7155H68.2823V36.2844H65.7924Z" fill="#0065DD"/>
<path fill-rule="evenodd" clip-rule="evenodd" d="M65.7924 12.1039V14.5435H68.2823V12.1039H65.7924Z" fill="#0065DD"/>
<path fill-rule="evenodd" clip-rule="evenodd" d="M131.594 36.2844V38.7155H134.075V36.2844H131.594Z" fill="#0065DD"/>
<path fill-rule="evenodd" clip-rule="evenodd" d="M98.6978 36.2844V38.7155H101.179V36.2844H98.6978Z" fill="#0065DD"/>
<path fill-rule="evenodd" clip-rule="evenodd" d="M32.8963 36.2844V38.7155H35.3863V36.2844H32.8963Z" fill="#0065DD"/>
<path fill-rule="evenodd" clip-rule="evenodd" d="M82.2452 36.2844V38.7155H84.7264V36.2844H82.2452Z" fill="#0065DD"/>
<path fill-rule="evenodd" clip-rule="evenodd" d="M82.2452 28.2244V30.6553H84.7264V28.2244H82.2452Z" fill="#0065DD"/>
<path fill-rule="evenodd" clip-rule="evenodd" d="M115.141 36.2844V38.7155H117.631V36.2844H115.141Z" fill="#0065DD"/>
<path fill-rule="evenodd" clip-rule="evenodd" d="M49.3489 36.2844V38.7155H51.8299V36.2844H49.3489Z" fill="#0065DD"/>
<path fill-rule="evenodd" clip-rule="evenodd" d="M57.5748 24.19V26.6295H60.056V24.19H57.5748Z" fill="#0065DD"/>
<path fill-rule="evenodd" clip-rule="evenodd" d="M127.485 24.19V26.6295H129.966V24.19H127.485Z" fill="#0065DD"/>
<path fill-rule="evenodd" clip-rule="evenodd" d="M127.485 12.1039V14.5435H129.966V12.1039H127.485Z" fill="#0065DD"/>
<path fill-rule="evenodd" clip-rule="evenodd" d="M94.5802 68.5167V70.9478H97.0701V68.5167H94.5802Z" fill="#0065DD"/>
<path fill-rule="evenodd" clip-rule="evenodd" d="M78.1364 68.5167V70.9478H80.6174V68.5167H78.1364Z" fill="#0065DD"/>
<path fill-rule="evenodd" clip-rule="evenodd" d="M111.033 68.5167V70.9478H113.514V68.5167H111.033Z" fill="#0065DD"/>
<path fill-rule="evenodd" clip-rule="evenodd" d="M111.033 24.19V26.6295H113.514V24.19H111.033Z" fill="#0065DD"/>
<path fill-rule="evenodd" clip-rule="evenodd" d="M45.2315 24.19V26.6295H47.7212V24.19H45.2315Z" fill="#0065DD"/>
<path fill-rule="evenodd" clip-rule="evenodd" d="M69.91 20.1641V22.5952H72.391V20.1641H69.91Z" fill="#0065DD"/>
<path fill-rule="evenodd" clip-rule="evenodd" d="M69.91 68.5167V70.9478H72.391V68.5167H69.91Z" fill="#0065DD"/>
<path fill-rule="evenodd" clip-rule="evenodd" d="M135.703 24.19V26.6295H138.193V24.19H135.703Z" fill="#0065DD"/>
<path fill-rule="evenodd" clip-rule="evenodd" d="M135.703 12.1039V14.5435H138.193V12.1039H135.703Z" fill="#0065DD"/>
<path fill-rule="evenodd" clip-rule="evenodd" d="M143.929 12.1039V14.5435H146.419V12.1039H143.929Z" fill="#0065DD"/>
<path fill-rule="evenodd" clip-rule="evenodd" d="M143.929 8.078V10.509H146.419V8.078H143.929Z" fill="#0065DD"/>
<path fill-rule="evenodd" clip-rule="evenodd" d="M102.806 68.5167V70.9478H105.287V68.5167H102.806Z" fill="#0065DD"/>
<path fill-rule="evenodd" clip-rule="evenodd" d="M102.806 24.19V26.6295H105.287V24.19H102.806Z" fill="#0065DD"/>
<path fill-rule="evenodd" clip-rule="evenodd" d="M86.3537 68.5167V70.9478H88.8437V68.5167H86.3537Z" fill="#0065DD"/>
<path fill-rule="evenodd" clip-rule="evenodd" d="M86.3537 24.19V26.6295H88.8437V24.19H86.3537Z" fill="#0065DD"/>
<path fill-rule="evenodd" clip-rule="evenodd" d="M90.4713 24.19V26.6295H92.9524V24.19H90.4713Z" fill="#0065DD"/>
<path fill-rule="evenodd" clip-rule="evenodd" d="M86.3537 20.1641V22.5952H88.8437V20.1641H86.3537Z" fill="#0065DD"/>
<path fill-rule="evenodd" clip-rule="evenodd" d="M119.259 24.19V26.6295H121.74V24.19H119.259Z" fill="#0065DD"/>
<path fill-rule="evenodd" clip-rule="evenodd" d="M61.6838 36.2844V38.7155H64.165V36.2844H61.6838Z" fill="#0065DD"/>
<path fill-rule="evenodd" clip-rule="evenodd" d="M127.485 36.2844V38.7155H129.966V36.2844H127.485Z" fill="#0065DD"/>
<path fill-rule="evenodd" clip-rule="evenodd" d="M94.5802 36.2844V38.7155H97.0701V36.2844H94.5802Z" fill="#0065DD"/>
<path fill-rule="evenodd" clip-rule="evenodd" d="M28.7875 36.2844V38.7155H31.2685V36.2844H28.7875Z" fill="#0065DD"/>
<path fill-rule="evenodd" clip-rule="evenodd" d="M78.1364 36.2844V38.7155H80.6174V36.2844H78.1364Z" fill="#0065DD"/>
<path fill-rule="evenodd" clip-rule="evenodd" d="M111.033 36.2844V38.7155H113.514V36.2844H111.033Z" fill="#0065DD"/>
<path fill-rule="evenodd" clip-rule="evenodd" d="M45.2315 36.2844V38.7155H47.7212V36.2844H45.2315Z" fill="#0065DD"/>
<path fill-rule="evenodd" clip-rule="evenodd" d="M69.91 36.2844V38.7155H72.391V36.2844H69.91Z" fill="#0065DD"/>
<path fill-rule="evenodd" clip-rule="evenodd" d="M69.91 12.1039V14.5435H72.391V12.1039H69.91Z" fill="#0065DD"/>
<path fill-rule="evenodd" clip-rule="evenodd" d="M102.806 36.2844V38.7155H105.287V36.2844H102.806Z" fill="#0065DD"/>
<path fill-rule="evenodd" clip-rule="evenodd" d="M37.0135 36.2844V38.7155H39.4946V36.2844H37.0135Z" fill="#0065DD"/>
<path fill-rule="evenodd" clip-rule="evenodd" d="M86.3537 36.2844V38.7155H88.8437V36.2844H86.3537Z" fill="#0065DD"/>
<path fill-rule="evenodd" clip-rule="evenodd" d="M119.259 36.2844V38.7155H121.74V36.2844H119.259Z" fill="#0065DD"/>
<path fill-rule="evenodd" clip-rule="evenodd" d="M53.4579 36.2844V38.7155H55.9477V36.2844H53.4579Z" fill="#0065DD"/>
<path fill-rule="evenodd" clip-rule="evenodd" d="M57.5748 52.3963V54.8358H60.056V52.3963H57.5748Z" fill="#0065DD"/>
<path fill-rule="evenodd" clip-rule="evenodd" d="M123.368 52.3963V54.8358H125.849V52.3963H123.368Z" fill="#0065DD"/>
<path fill-rule="evenodd" clip-rule="evenodd" d="M90.4713 52.3963V54.8358H92.9524V52.3963H90.4713Z" fill="#0065DD"/>
<path fill-rule="evenodd" clip-rule="evenodd" d="M24.6704 52.3963V54.8358H27.1602V52.3963H24.6704Z" fill="#0065DD"/>
<path fill-rule="evenodd" clip-rule="evenodd" d="M74.0188 52.3963V54.8358H76.5087V52.3963H74.0188Z" fill="#0065DD"/>
<path fill-rule="evenodd" clip-rule="evenodd" d="M139.82 52.3963V54.8358H142.301V52.3963H139.82Z" fill="#0065DD"/>
<path fill-rule="evenodd" clip-rule="evenodd" d="M139.82 48.3706V50.8016H142.301V48.3706H139.82Z" fill="#0065DD"/>
<path fill-rule="evenodd" clip-rule="evenodd" d="M106.915 52.3963V54.8358H109.405V52.3963H106.915Z" fill="#0065DD"/>
<path fill-rule="evenodd" clip-rule="evenodd" d="M41.1225 52.3963V54.8358H43.6035V52.3963H41.1225Z" fill="#0065DD"/>
<path fill-rule="evenodd" clip-rule="evenodd" d="M65.7924 52.3963V54.8358H68.2823V52.3963H65.7924Z" fill="#0065DD"/>
<path fill-rule="evenodd" clip-rule="evenodd" d="M98.6978 52.3963V54.8358H101.179V52.3963H98.6978Z" fill="#0065DD"/>
<path fill-rule="evenodd" clip-rule="evenodd" d="M32.8963 52.3963V54.8358H35.3863V52.3963H32.8963Z" fill="#0065DD"/>
<path fill-rule="evenodd" clip-rule="evenodd" d="M32.8963 56.4308V58.8619H35.3863V56.4308H32.8963Z" fill="#0065DD"/>
<path fill-rule="evenodd" clip-rule="evenodd" d="M82.2452 52.3963V54.8358H84.7264V52.3963H82.2452Z" fill="#0065DD"/>
<path fill-rule="evenodd" clip-rule="evenodd" d="M115.141 52.3963V54.8358H117.631V52.3963H115.141Z" fill="#0065DD"/>
<path fill-rule="evenodd" clip-rule="evenodd" d="M49.3489 52.3963V54.8358H51.8299V52.3963H49.3489Z" fill="#0065DD"/>
<path fill-rule="evenodd" clip-rule="evenodd" d="M61.6838 52.3963V54.8358H64.165V52.3963H61.6838Z" fill="#0065DD"/>
<path fill-rule="evenodd" clip-rule="evenodd" d="M127.485 52.3963V54.8358H129.966V52.3963H127.485Z" fill="#0065DD"/>
<path fill-rule="evenodd" clip-rule="evenodd" d="M94.5802 52.3963V54.8358H97.0701V52.3963H94.5802Z" fill="#0065DD"/>
<path fill-rule="evenodd" clip-rule="evenodd" d="M28.7875 52.3963V54.8358H31.2685V52.3963H28.7875Z" fill="#0065DD"/>
<path fill-rule="evenodd" clip-rule="evenodd" d="M78.1364 52.3963V54.8358H80.6174V52.3963H78.1364Z" fill="#0065DD"/>
<path fill-rule="evenodd" clip-rule="evenodd" d="M143.929 52.3963V54.8358H146.41V52.3963H143.929Z" fill="#0065DD"/>
<path fill-rule="evenodd" clip-rule="evenodd" d="M111.033 52.3963V54.8358H113.514V52.3963H111.033Z" fill="#0065DD"/>
<path fill-rule="evenodd" clip-rule="evenodd" d="M45.2315 52.3963V54.8358H47.7212V52.3963H45.2315Z" fill="#0065DD"/>
<path fill-rule="evenodd" clip-rule="evenodd" d="M69.91 52.3963V54.8358H72.391V52.3963H69.91Z" fill="#0065DD"/>
<path fill-rule="evenodd" clip-rule="evenodd" d="M135.703 52.3963V54.8358H138.193V52.3963H135.703Z" fill="#0065DD"/>
<path fill-rule="evenodd" clip-rule="evenodd" d="M131.594 52.3963V54.8358H134.075V52.3963H131.594Z" fill="#0065DD"/>
<path fill-rule="evenodd" clip-rule="evenodd" d="M102.806 52.3963V54.8358H105.287V52.3963H102.806Z" fill="#0065DD"/>
<path fill-rule="evenodd" clip-rule="evenodd" d="M37.0135 52.3963V54.8358H39.4946V52.3963H37.0135Z" fill="#0065DD"/>
<path fill-rule="evenodd" clip-rule="evenodd" d="M37.0135 56.4308V58.8619H39.4946V56.4308H37.0135Z" fill="#0065DD"/>
<path fill-rule="evenodd" clip-rule="evenodd" d="M86.3537 52.3963V54.8358H88.8437V52.3963H86.3537Z" fill="#0065DD"/>
<path fill-rule="evenodd" clip-rule="evenodd" d="M20.5614 52.3963V54.8358H23.0424V52.3963H20.5614Z" fill="#0065DD"/>
<path fill-rule="evenodd" clip-rule="evenodd" d="M119.259 52.3963V54.8358H121.74V52.3963H119.259Z" fill="#0065DD"/>
<path fill-rule="evenodd" clip-rule="evenodd" d="M53.4579 52.3963V54.8358H55.9477V52.3963H53.4579Z" fill="#0065DD"/>
<path fill-rule="evenodd" clip-rule="evenodd" d="M57.5748 60.4564V62.8875H60.056V60.4564H57.5748Z" fill="#0065DD"/>
<path fill-rule="evenodd" clip-rule="evenodd" d="M123.368 16.1383V18.5692H125.849V16.1383H123.368Z" fill="#0065DD"/>
<path fill-rule="evenodd" clip-rule="evenodd" d="M90.4713 60.4564V62.8875H92.9524V60.4564H90.4713Z" fill="#0065DD"/>
<path fill-rule="evenodd" clip-rule="evenodd" d="M90.4713 72.5425V74.9822H92.9524V72.5425H90.4713Z" fill="#0065DD"/>
<path fill-rule="evenodd" clip-rule="evenodd" d="M24.6704 60.4564V62.8875H27.1602V60.4564H24.6704Z" fill="#0065DD"/>
<path fill-rule="evenodd" clip-rule="evenodd" d="M28.7875 60.4564V62.8875H31.2685V60.4564H28.7875Z" fill="#0065DD"/>
<path fill-rule="evenodd" clip-rule="evenodd" d="M74.0188 60.4564V62.8875H76.5087V60.4564H74.0188Z" fill="#0065DD"/>
<path fill-rule="evenodd" clip-rule="evenodd" d="M74.0188 72.5425V74.9822H76.5087V72.5425H74.0188Z" fill="#0065DD"/>
<path fill-rule="evenodd" clip-rule="evenodd" d="M139.82 60.4564V62.8875H142.301V60.4564H139.82Z" fill="#0065DD"/>
<path fill-rule="evenodd" clip-rule="evenodd" d="M106.915 60.4564V62.8875H109.405V60.4564H106.915Z" fill="#0065DD"/>
<path fill-rule="evenodd" clip-rule="evenodd" d="M106.915 72.5425V74.9822H109.405V72.5425H106.915Z" fill="#0065DD"/>
<path fill-rule="evenodd" clip-rule="evenodd" d="M41.1225 60.4564V62.8875H43.6035V60.4564H41.1225Z" fill="#0065DD"/>
<path fill-rule="evenodd" clip-rule="evenodd" d="M65.7924 60.4564V62.8875H68.2823V60.4564H65.7924Z" fill="#0065DD"/>
<path fill-rule="evenodd" clip-rule="evenodd" d="M131.594 60.4564V62.8875H134.075V60.4564H131.594Z" fill="#0065DD"/>
<path fill-rule="evenodd" clip-rule="evenodd" d="M131.594 16.1383V18.5692H134.075V16.1383H131.594Z" fill="#0065DD"/>
<path fill-rule="evenodd" clip-rule="evenodd" d="M139.82 16.1383V18.5692H142.301V16.1383H139.82Z" fill="#0065DD"/>
<path fill-rule="evenodd" clip-rule="evenodd" d="M131.594 4.04358V6.4832H134.075V4.04358H131.594Z" fill="#0065DD"/>
<path fill-rule="evenodd" clip-rule="evenodd" d="M139.82 4.04358V6.4832H142.301V4.04358H139.82Z" fill="#0065DD"/>
<path fill-rule="evenodd" clip-rule="evenodd" d="M139.82 0.0177612V2.44876H142.301V0.0177612H139.82Z" fill="#0065DD"/>
<path fill-rule="evenodd" clip-rule="evenodd" d="M98.6978 60.4564V62.8875H101.179V60.4564H98.6978Z" fill="#0065DD"/>
<path fill-rule="evenodd" clip-rule="evenodd" d="M82.2452 60.4564V62.8875H84.7264V60.4564H82.2452Z" fill="#0065DD"/>
<path fill-rule="evenodd" clip-rule="evenodd" d="M82.2452 72.5425V74.9822H84.7264V72.5425H82.2452Z" fill="#0065DD"/>
<path fill-rule="evenodd" clip-rule="evenodd" d="M16.4525 60.4564V62.8875H18.9336V60.4564H16.4525Z" fill="#0065DD"/>
<path fill-rule="evenodd" clip-rule="evenodd" d="M12.335 60.4564V62.8875H14.8249V60.4564H12.335Z" fill="#0065DD"/>
<path fill-rule="evenodd" clip-rule="evenodd" d="M115.141 60.4564V62.8875H117.631V60.4564H115.141Z" fill="#0065DD"/>
<path fill-rule="evenodd" clip-rule="evenodd" d="M49.3489 60.4564V62.8875H51.8299V60.4564H49.3489Z" fill="#0065DD"/>
<path fill-rule="evenodd" clip-rule="evenodd" d="M123.368 28.2244V30.6553H125.849V28.2244H123.368Z" fill="#0065DD"/>
<path fill-rule="evenodd" clip-rule="evenodd" d="M90.4713 28.2244V30.6553H92.9524V28.2244H90.4713Z" fill="#0065DD"/>
<path fill-rule="evenodd" clip-rule="evenodd" d="M139.82 28.2244V30.6553H142.301V28.2244H139.82Z" fill="#0065DD"/>
<path fill-rule="evenodd" clip-rule="evenodd" d="M143.929 28.2244V30.6553H146.41V28.2244H143.929Z" fill="#0065DD"/>
<path fill-rule="evenodd" clip-rule="evenodd" d="M148.047 28.2244V30.6553H150.528V28.2244H148.047Z" fill="#0065DD"/>
<path fill-rule="evenodd" clip-rule="evenodd" d="M143.929 32.2502V34.6899H146.41V32.2502H143.929Z" fill="#0065DD"/>
<path fill-rule="evenodd" clip-rule="evenodd" d="M148.047 32.2502V34.6899H150.528V32.2502H148.047Z" fill="#0065DD"/>
<path fill-rule="evenodd" clip-rule="evenodd" d="M41.1225 28.2244V30.6553H43.6035V28.2244H41.1225Z" fill="#0065DD"/>
<path fill-rule="evenodd" clip-rule="evenodd" d="M131.594 28.2244V30.6553H134.075V28.2244H131.594Z" fill="#0065DD"/>
<path fill-rule="evenodd" clip-rule="evenodd" d="M135.703 28.2244V30.6553H138.193V28.2244H135.703Z" fill="#0065DD"/>
<path fill-rule="evenodd" clip-rule="evenodd" d="M98.6978 28.2244V30.6553H101.179V28.2244H98.6978Z" fill="#0065DD"/>
<path fill-rule="evenodd" clip-rule="evenodd" d="M94.5802 28.2244V30.6553H97.0701V28.2244H94.5802Z" fill="#0065DD"/>
<path fill-rule="evenodd" clip-rule="evenodd" d="M32.8963 28.2244V30.6553H35.3863V28.2244H32.8963Z" fill="#0065DD"/>
<path fill-rule="evenodd" clip-rule="evenodd" d="M115.141 28.2244V30.6553H117.631V28.2244H115.141Z" fill="#0065DD"/>
<path fill-rule="evenodd" clip-rule="evenodd" d="M49.3489 28.2244V30.6553H51.8299V28.2244H49.3489Z" fill="#0065DD"/>
<path fill-rule="evenodd" clip-rule="evenodd" d="M61.6838 60.4564V62.8875H64.165V60.4564H61.6838Z" fill="#0065DD"/>
<path fill-rule="evenodd" clip-rule="evenodd" d="M127.485 60.4564V62.8875H129.966V60.4564H127.485Z" fill="#0065DD"/>
<path fill-rule="evenodd" clip-rule="evenodd" d="M127.485 16.1383V18.5692H129.966V16.1383H127.485Z" fill="#0065DD"/>
<path fill-rule="evenodd" clip-rule="evenodd" d="M127.485 4.04358V6.4832H129.966V4.04358H127.485Z" fill="#0065DD"/>
<path fill-rule="evenodd" clip-rule="evenodd" d="M135.703 4.04358V6.4832H138.193V4.04358H135.703Z" fill="#0065DD"/>
<path fill-rule="evenodd" clip-rule="evenodd" d="M135.703 0.0177612V2.44876H138.193V0.0177612H135.703Z" fill="#0065DD"/>
<path fill-rule="evenodd" clip-rule="evenodd" d="M94.5802 60.4564V62.8875H97.0701V60.4564H94.5802Z" fill="#0065DD"/>
<path fill-rule="evenodd" clip-rule="evenodd" d="M78.1364 60.4564V62.8875H80.6174V60.4564H78.1364Z" fill="#0065DD"/>
<path fill-rule="evenodd" clip-rule="evenodd" d="M78.1364 72.5425V74.9822H80.6174V72.5425H78.1364Z" fill="#0065DD"/>
<path fill-rule="evenodd" clip-rule="evenodd" d="M111.033 60.4564V62.8875H113.514V60.4564H111.033Z" fill="#0065DD"/>
<path fill-rule="evenodd" clip-rule="evenodd" d="M45.2315 60.4564V62.8875H47.7212V60.4564H45.2315Z" fill="#0065DD"/>
<path fill-rule="evenodd" clip-rule="evenodd" d="M69.91 60.4564V62.8875H72.391V60.4564H69.91Z" fill="#0065DD"/>
<path fill-rule="evenodd" clip-rule="evenodd" d="M135.703 60.4564V62.8875H138.193V60.4564H135.703Z" fill="#0065DD"/>
<path fill-rule="evenodd" clip-rule="evenodd" d="M135.703 16.1383V18.5692H138.193V16.1383H135.703Z" fill="#0065DD"/>
<path fill-rule="evenodd" clip-rule="evenodd" d="M143.929 16.1383V18.5692H146.419V16.1383H143.929Z" fill="#0065DD"/>
<path fill-rule="evenodd" clip-rule="evenodd" d="M102.806 60.4564V62.8875H105.287V60.4564H102.806Z" fill="#0065DD"/>
<path fill-rule="evenodd" clip-rule="evenodd" d="M86.3537 60.4564V62.8875H88.8437V60.4564H86.3537Z" fill="#0065DD"/>
<path fill-rule="evenodd" clip-rule="evenodd" d="M86.3537 72.5425V74.9822H88.8437V72.5425H86.3537Z" fill="#0065DD"/>
<path fill-rule="evenodd" clip-rule="evenodd" d="M20.5614 60.4564V62.8875H23.0424V60.4564H20.5614Z" fill="#0065DD"/>
<path fill-rule="evenodd" clip-rule="evenodd" d="M20.5614 72.5425V74.9822H23.0424V72.5425H20.5614Z" fill="#0065DD"/>
<path fill-rule="evenodd" clip-rule="evenodd" d="M53.4579 60.4564V62.8875H55.9477V60.4564H53.4579Z" fill="#0065DD"/>
<path fill-rule="evenodd" clip-rule="evenodd" d="M57.5748 28.2244V30.6553H60.056V28.2244H57.5748Z" fill="#0065DD"/>
<path fill-rule="evenodd" clip-rule="evenodd" d="M127.485 28.2244V30.6553H129.966V28.2244H127.485Z" fill="#0065DD"/>
<path fill-rule="evenodd" clip-rule="evenodd" d="M152.155 32.2502V34.6899H154.636V32.2502H152.155Z" fill="#0065DD"/>
<path fill-rule="evenodd" clip-rule="evenodd" d="M111.033 28.2244V30.6553H113.514V28.2244H111.033Z" fill="#0065DD"/>
<path fill-rule="evenodd" clip-rule="evenodd" d="M45.2315 28.2244V30.6553H47.7212V28.2244H45.2315Z" fill="#0065DD"/>
<path fill-rule="evenodd" clip-rule="evenodd" d="M37.0135 28.2244V30.6553H39.4946V28.2244H37.0135Z" fill="#0065DD"/>
<path fill-rule="evenodd" clip-rule="evenodd" d="M86.3537 28.2244V30.6553H88.8437V28.2244H86.3537Z" fill="#0065DD"/>
<path fill-rule="evenodd" clip-rule="evenodd" d="M119.259 28.2244V30.6553H121.74V28.2244H119.259Z" fill="#0065DD"/>
<path fill-rule="evenodd" clip-rule="evenodd" d="M57.5748 44.336V46.7757H60.056V44.336H57.5748Z" fill="#0065DD"/>
<path fill-rule="evenodd" clip-rule="evenodd" d="M123.368 44.336V46.7757H125.849V44.336H123.368Z" fill="#0065DD"/>
<path fill-rule="evenodd" clip-rule="evenodd" d="M90.4713 44.336V46.7757H92.9524V44.336H90.4713Z" fill="#0065DD"/>
<path fill-rule="evenodd" clip-rule="evenodd" d="M24.6704 44.336V46.7757H27.1602V44.336H24.6704Z" fill="#0065DD"/>
<path fill-rule="evenodd" clip-rule="evenodd" d="M74.0188 44.336V46.7757H76.5087V44.336H74.0188Z" fill="#0065DD"/>
<path fill-rule="evenodd" clip-rule="evenodd" d="M106.915 44.336V46.7757H109.405V44.336H106.915Z" fill="#0065DD"/>
<path fill-rule="evenodd" clip-rule="evenodd" d="M41.1225 44.336V46.7757H43.6035V44.336H41.1225Z" fill="#0065DD"/>
<path fill-rule="evenodd" clip-rule="evenodd" d="M65.7924 44.336V46.7757H68.2823V44.336H65.7924Z" fill="#0065DD"/>
<path fill-rule="evenodd" clip-rule="evenodd" d="M98.6978 44.336V46.7757H101.179V44.336H98.6978Z" fill="#0065DD"/>
<path fill-rule="evenodd" clip-rule="evenodd" d="M32.8963 44.336V46.7757H35.3863V44.336H32.8963Z" fill="#0065DD"/>
<path fill-rule="evenodd" clip-rule="evenodd" d="M82.2452 44.336V46.7757H84.7264V44.336H82.2452Z" fill="#0065DD"/>
<path fill-rule="evenodd" clip-rule="evenodd" d="M115.141 44.336V46.7757H117.631V44.336H115.141Z" fill="#0065DD"/>
<path fill-rule="evenodd" clip-rule="evenodd" d="M20.5614 44.336V46.7757H23.0424V44.336H20.5614Z" fill="#0065DD"/>
<path fill-rule="evenodd" clip-rule="evenodd" d="M49.3489 44.336V46.7757H51.8299V44.336H49.3489Z" fill="#0065DD"/>
<path fill-rule="evenodd" clip-rule="evenodd" d="M61.6838 44.336V46.7757H64.165V44.336H61.6838Z" fill="#0065DD"/>
<path fill-rule="evenodd" clip-rule="evenodd" d="M127.485 44.336V46.7757H129.966V44.336H127.485Z" fill="#0065DD"/>
<path fill-rule="evenodd" clip-rule="evenodd" d="M94.5802 44.336V46.7757H97.0701V44.336H94.5802Z" fill="#0065DD"/>
<path fill-rule="evenodd" clip-rule="evenodd" d="M28.7875 44.336V46.7757H31.2685V44.336H28.7875Z" fill="#0065DD"/>
<path fill-rule="evenodd" clip-rule="evenodd" d="M78.1364 44.336V46.7757H80.6174V44.336H78.1364Z" fill="#0065DD"/>
<path fill-rule="evenodd" clip-rule="evenodd" d="M111.033 44.336V46.7757H113.514V44.336H111.033Z" fill="#0065DD"/>
<path fill-rule="evenodd" clip-rule="evenodd" d="M45.2315 44.336V46.7757H47.7212V44.336H45.2315Z" fill="#0065DD"/>
<path fill-rule="evenodd" clip-rule="evenodd" d="M69.91 44.336V46.7757H72.391V44.336H69.91Z" fill="#0065DD"/>
<path fill-rule="evenodd" clip-rule="evenodd" d="M102.806 44.336V46.7757H105.287V44.336H102.806Z" fill="#0065DD"/>
<path fill-rule="evenodd" clip-rule="evenodd" d="M37.0135 44.336V46.7757H39.4946V44.336H37.0135Z" fill="#0065DD"/>
<path fill-rule="evenodd" clip-rule="evenodd" d="M4.10893 60.4564V62.8875H6.59882V60.4564H4.10893Z" fill="#0065DD"/>
<path fill-rule="evenodd" clip-rule="evenodd" d="M86.3537 44.336V46.7757H88.8437V44.336H86.3537Z" fill="#0065DD"/>
<path fill-rule="evenodd" clip-rule="evenodd" d="M119.259 44.336V46.7757H121.74V44.336H119.259Z" fill="#0065DD"/>
<path fill-rule="evenodd" clip-rule="evenodd" d="M53.4579 44.336V46.7757H55.9477V44.336H53.4579Z" fill="#0065DD"/>
<path fill-rule="evenodd" clip-rule="evenodd" d="M123.368 20.1641V22.5952H125.849V20.1641H123.368Z" fill="#0065DD"/>
<path fill-rule="evenodd" clip-rule="evenodd" d="M123.368 8.078V10.509H125.849V8.078H123.368Z" fill="#0065DD"/>
<path fill-rule="evenodd" clip-rule="evenodd" d="M90.4713 64.491V66.9219H92.9524V64.491H90.4713Z" fill="#0065DD"/>
<path fill-rule="evenodd" clip-rule="evenodd" d="M74.0188 64.491V66.9219H76.5087V64.491H74.0188Z" fill="#0065DD"/>
<path fill-rule="evenodd" clip-rule="evenodd" d="M139.82 64.491V66.9219H142.301V64.491H139.82Z" fill="#0065DD"/>
<path fill-rule="evenodd" clip-rule="evenodd" d="M139.82 20.1641V22.5952H142.301V20.1641H139.82Z" fill="#0065DD"/>
<path fill-rule="evenodd" clip-rule="evenodd" d="M106.915 64.491V66.9219H109.405V64.491H106.915Z" fill="#0065DD"/>
<path fill-rule="evenodd" clip-rule="evenodd" d="M106.915 20.1641V22.5952H109.405V20.1641H106.915Z" fill="#0065DD"/>
<path fill-rule="evenodd" clip-rule="evenodd" d="M106.915 16.1383V18.5692H109.405V16.1383H106.915Z" fill="#0065DD"/>
<path fill-rule="evenodd" clip-rule="evenodd" d="M65.7924 64.491V66.9219H68.2823V64.491H65.7924Z" fill="#0065DD"/>
<path fill-rule="evenodd" clip-rule="evenodd" d="M131.594 20.1641V22.5952H134.075V20.1641H131.594Z" fill="#0065DD"/>
<path fill-rule="evenodd" clip-rule="evenodd" d="M131.594 8.078V10.509H134.075V8.078H131.594Z" fill="#0065DD"/>
<path fill-rule="evenodd" clip-rule="evenodd" d="M139.82 8.078V10.509H142.301V8.078H139.82Z" fill="#0065DD"/>
<path fill-rule="evenodd" clip-rule="evenodd" d="M98.6978 64.491V66.9219H101.179V64.491H98.6978Z" fill="#0065DD"/>
<path fill-rule="evenodd" clip-rule="evenodd" d="M82.2452 64.491V66.9219H84.7264V64.491H82.2452Z" fill="#0065DD"/>
<path fill-rule="evenodd" clip-rule="evenodd" d="M16.4525 64.491V66.9219H18.9336V64.491H16.4525Z" fill="#0065DD"/>
<path fill-rule="evenodd" clip-rule="evenodd" d="M115.141 64.491V66.9219H117.631V64.491H115.141Z" fill="#0065DD"/>
<path fill-rule="evenodd" clip-rule="evenodd" d="M57.5748 32.2502V34.6899H60.056V32.2502H57.5748Z" fill="#0065DD"/>
<path fill-rule="evenodd" clip-rule="evenodd" d="M123.368 32.2502V34.6899H125.849V32.2502H123.368Z" fill="#0065DD"/>
<path fill-rule="evenodd" clip-rule="evenodd" d="M90.4713 32.2502V34.6899H92.9524V32.2502H90.4713Z" fill="#0065DD"/>
<path fill-rule="evenodd" clip-rule="evenodd" d="M74.0188 32.2502V34.6899H76.5087V32.2502H74.0188Z" fill="#0065DD"/>
<path fill-rule="evenodd" clip-rule="evenodd" d="M139.82 32.2502V34.6899H142.301V32.2502H139.82Z" fill="#0065DD"/>
<path fill-rule="evenodd" clip-rule="evenodd" d="M106.915 32.2502V34.6899H109.405V32.2502H106.915Z" fill="#0065DD"/>
<path fill-rule="evenodd" clip-rule="evenodd" d="M106.915 28.2244V30.6553H109.405V28.2244H106.915Z" fill="#0065DD"/>
<path fill-rule="evenodd" clip-rule="evenodd" d="M41.1225 32.2502V34.6899H43.6035V32.2502H41.1225Z" fill="#0065DD"/>
<path fill-rule="evenodd" clip-rule="evenodd" d="M65.7924 32.2502V34.6899H68.2823V32.2502H65.7924Z" fill="#0065DD"/>
<path fill-rule="evenodd" clip-rule="evenodd" d="M131.594 32.2502V34.6899H134.075V32.2502H131.594Z" fill="#0065DD"/>
<path fill-rule="evenodd" clip-rule="evenodd" d="M135.703 32.2502V34.6899H138.193V32.2502H135.703Z" fill="#0065DD"/>
<path fill-rule="evenodd" clip-rule="evenodd" d="M98.6978 32.2502V34.6899H101.179V32.2502H98.6978Z" fill="#0065DD"/>
<path fill-rule="evenodd" clip-rule="evenodd" d="M32.8963 32.2502V34.6899H35.3863V32.2502H32.8963Z" fill="#0065DD"/>
<path fill-rule="evenodd" clip-rule="evenodd" d="M82.2452 32.2502V34.6899H84.7264V32.2502H82.2452Z" fill="#0065DD"/>
<path fill-rule="evenodd" clip-rule="evenodd" d="M82.2452 24.19V26.6295H84.7264V24.19H82.2452Z" fill="#0065DD"/>
<path fill-rule="evenodd" clip-rule="evenodd" d="M82.2452 16.1383V18.5692H84.7264V16.1383H82.2452Z" fill="#0065DD"/>
<path fill-rule="evenodd" clip-rule="evenodd" d="M115.141 32.2502V34.6899H117.631V32.2502H115.141Z" fill="#0065DD"/>
<path fill-rule="evenodd" clip-rule="evenodd" d="M49.3489 32.2502V34.6899H51.8299V32.2502H49.3489Z" fill="#0065DD"/>
<path fill-rule="evenodd" clip-rule="evenodd" d="M61.6838 64.491V66.9219H64.165V64.491H61.6838Z" fill="#0065DD"/>
<path fill-rule="evenodd" clip-rule="evenodd" d="M127.485 20.1641V22.5952H129.966V20.1641H127.485Z" fill="#0065DD"/>
<path fill-rule="evenodd" clip-rule="evenodd" d="M127.485 8.078V10.509H129.966V8.078H127.485Z" fill="#0065DD"/>
<path fill-rule="evenodd" clip-rule="evenodd" d="M135.703 8.078V10.509H138.193V8.078H135.703Z" fill="#0065DD"/>
<path fill-rule="evenodd" clip-rule="evenodd" d="M94.5802 64.491V66.9219H97.0701V64.491H94.5802Z" fill="#0065DD"/>
<path fill-rule="evenodd" clip-rule="evenodd" d="M78.1364 64.491V66.9219H80.6174V64.491H78.1364Z" fill="#0065DD"/>
<path fill-rule="evenodd" clip-rule="evenodd" d="M111.033 64.491V66.9219H113.514V64.491H111.033Z" fill="#0065DD"/>
<path fill-rule="evenodd" clip-rule="evenodd" d="M45.2315 64.491V66.9219H47.7212V64.491H45.2315Z" fill="#0065DD"/>
<path fill-rule="evenodd" clip-rule="evenodd" d="M69.91 64.491V66.9219H72.391V64.491H69.91Z" fill="#0065DD"/>
<path fill-rule="evenodd" clip-rule="evenodd" d="M135.703 64.491V66.9219H138.193V64.491H135.703Z" fill="#0065DD"/>
<path fill-rule="evenodd" clip-rule="evenodd" d="M135.703 20.1641V22.5952H138.193V20.1641H135.703Z" fill="#0065DD"/>
<path fill-rule="evenodd" clip-rule="evenodd" d="M102.806 64.491V66.9219H105.287V64.491H102.806Z" fill="#0065DD"/>
<path fill-rule="evenodd" clip-rule="evenodd" d="M86.3537 64.491V66.9219H88.8437V64.491H86.3537Z" fill="#0065DD"/>
<path fill-rule="evenodd" clip-rule="evenodd" d="M86.3537 16.1383V18.5692H88.8437V16.1383H86.3537Z" fill="#0065DD"/>
<path fill-rule="evenodd" clip-rule="evenodd" d="M20.5614 64.491V66.9219H23.0424V64.491H20.5614Z" fill="#0065DD"/>
<path fill-rule="evenodd" clip-rule="evenodd" d="M119.259 20.1641V22.5952H121.74V20.1641H119.259Z" fill="#0065DD"/>
<path fill-rule="evenodd" clip-rule="evenodd" d="M61.6838 32.2502V34.6899H64.165V32.2502H61.6838Z" fill="#0065DD"/>
<path fill-rule="evenodd" clip-rule="evenodd" d="M61.6838 24.19V26.6295H64.165V24.19H61.6838Z" fill="#0065DD"/>
<path fill-rule="evenodd" clip-rule="evenodd" d="M127.485 32.2502V34.6899H129.966V32.2502H127.485Z" fill="#0065DD"/>
<path fill-rule="evenodd" clip-rule="evenodd" d="M94.5802 32.2502V34.6899H97.0701V32.2502H94.5802Z" fill="#0065DD"/>
<path fill-rule="evenodd" clip-rule="evenodd" d="M94.5802 24.19V26.6295H97.0701V24.19H94.5802Z" fill="#0065DD"/>
<path fill-rule="evenodd" clip-rule="evenodd" d="M28.7875 32.2502V34.6899H31.2685V32.2502H28.7875Z" fill="#0065DD"/>
<path fill-rule="evenodd" clip-rule="evenodd" d="M78.1364 32.2502V34.6899H80.6174V32.2502H78.1364Z" fill="#0065DD"/>
<path fill-rule="evenodd" clip-rule="evenodd" d="M152.155 36.2844V38.7155H154.636V36.2844H152.155Z" fill="#0065DD"/>
<path fill-rule="evenodd" clip-rule="evenodd" d="M111.033 32.2502V34.6899H113.514V32.2502H111.033Z" fill="#0065DD"/>
<path fill-rule="evenodd" clip-rule="evenodd" d="M45.2315 32.2502V34.6899H47.7212V32.2502H45.2315Z" fill="#0065DD"/>
<path fill-rule="evenodd" clip-rule="evenodd" d="M16.4525 32.2502V34.6899H18.9336V32.2502H16.4525Z" fill="#0065DD"/>
<path fill-rule="evenodd" clip-rule="evenodd" d="M69.91 32.2502V34.6899H72.391V32.2502H69.91Z" fill="#0065DD"/>
<path fill-rule="evenodd" clip-rule="evenodd" d="M102.806 32.2502V34.6899H105.287V32.2502H102.806Z" fill="#0065DD"/>
<path fill-rule="evenodd" clip-rule="evenodd" d="M102.806 28.2244V30.6553H105.287V28.2244H102.806Z" fill="#0065DD"/>
<path fill-rule="evenodd" clip-rule="evenodd" d="M37.0135 32.2502V34.6899H39.4946V32.2502H37.0135Z" fill="#0065DD"/>
<path fill-rule="evenodd" clip-rule="evenodd" d="M86.3537 32.2502V34.6899H88.8437V32.2502H86.3537Z" fill="#0065DD"/>
<path fill-rule="evenodd" clip-rule="evenodd" d="M119.259 32.2502V34.6899H121.74V32.2502H119.259Z" fill="#0065DD"/>
<path fill-rule="evenodd" clip-rule="evenodd" d="M53.4579 32.2502V34.6899H55.9477V32.2502H53.4579Z" fill="#0065DD"/>
<path fill-rule="evenodd" clip-rule="evenodd" d="M24.6704 32.2502V34.6899H27.1602V32.2502H24.6704Z" fill="#0065DD"/>
<path fill-rule="evenodd" clip-rule="evenodd" d="M57.5748 48.3706V50.8016H60.056V48.3706H57.5748Z" fill="#0065DD"/>
<path fill-rule="evenodd" clip-rule="evenodd" d="M123.368 48.3706V50.8016H125.849V48.3706H123.368Z" fill="#0065DD"/>
<path fill-rule="evenodd" clip-rule="evenodd" d="M90.4713 48.3706V50.8016H92.9524V48.3706H90.4713Z" fill="#0065DD"/>
<path fill-rule="evenodd" clip-rule="evenodd" d="M24.6704 48.3706V50.8016H27.1602V48.3706H24.6704Z" fill="#0065DD"/>
<path fill-rule="evenodd" clip-rule="evenodd" d="M24.6704 64.491V66.9219H27.1602V64.491H24.6704Z" fill="#0065DD"/>
<path fill-rule="evenodd" clip-rule="evenodd" d="M74.0188 48.3706V50.8016H76.5087V48.3706H74.0188Z" fill="#0065DD"/>
<path fill-rule="evenodd" clip-rule="evenodd" d="M106.915 48.3706V50.8016H109.405V48.3706H106.915Z" fill="#0065DD"/>
<path fill-rule="evenodd" clip-rule="evenodd" d="M41.1225 48.3706V50.8016H43.6035V48.3706H41.1225Z" fill="#0065DD"/>
<path fill-rule="evenodd" clip-rule="evenodd" d="M65.7924 48.3706V50.8016H68.2823V48.3706H65.7924Z" fill="#0065DD"/>
<path fill-rule="evenodd" clip-rule="evenodd" d="M98.6978 48.3706V50.8016H101.179V48.3706H98.6978Z" fill="#0065DD"/>
<path fill-rule="evenodd" clip-rule="evenodd" d="M32.8963 48.3706V50.8016H35.3863V48.3706H32.8963Z" fill="#0065DD"/>
<path fill-rule="evenodd" clip-rule="evenodd" d="M82.2452 48.3706V50.8016H84.7264V48.3706H82.2452Z" fill="#0065DD"/>
<path fill-rule="evenodd" clip-rule="evenodd" d="M115.141 48.3706V50.8016H117.631V48.3706H115.141Z" fill="#0065DD"/>
<path fill-rule="evenodd" clip-rule="evenodd" d="M20.5614 48.3706V50.8016H23.0424V48.3706H20.5614Z" fill="#0065DD"/>
<path fill-rule="evenodd" clip-rule="evenodd" d="M49.3489 48.3706V50.8016H51.8299V48.3706H49.3489Z" fill="#0065DD"/>
<path fill-rule="evenodd" clip-rule="evenodd" d="M61.6838 48.3706V50.8016H64.165V48.3706H61.6838Z" fill="#0065DD"/>
<path fill-rule="evenodd" clip-rule="evenodd" d="M127.485 48.3706V50.8016H129.966V48.3706H127.485Z" fill="#0065DD"/>
<path fill-rule="evenodd" clip-rule="evenodd" d="M94.5802 48.3706V50.8016H97.0701V48.3706H94.5802Z" fill="#0065DD"/>
<path fill-rule="evenodd" clip-rule="evenodd" d="M28.7875 48.3706V50.8016H31.2685V48.3706H28.7875Z" fill="#0065DD"/>
<path fill-rule="evenodd" clip-rule="evenodd" d="M78.1364 48.3706V50.8016H80.6174V48.3706H78.1364Z" fill="#0065DD"/>
<path fill-rule="evenodd" clip-rule="evenodd" d="M111.033 48.3706V50.8016H113.514V48.3706H111.033Z" fill="#0065DD"/>
<path fill-rule="evenodd" clip-rule="evenodd" d="M45.2315 48.3706V50.8016H47.7212V48.3706H45.2315Z" fill="#0065DD"/>
<path fill-rule="evenodd" clip-rule="evenodd" d="M69.91 48.3706V50.8016H72.391V48.3706H69.91Z" fill="#0065DD"/>
<path fill-rule="evenodd" clip-rule="evenodd" d="M102.806 48.3706V50.8016H105.287V48.3706H102.806Z" fill="#0065DD"/>
<path fill-rule="evenodd" clip-rule="evenodd" d="M37.0135 48.3706V50.8016H39.4946V48.3706H37.0135Z" fill="#0065DD"/>
<path fill-rule="evenodd" clip-rule="evenodd" d="M86.3537 48.3706V50.8016H88.8437V48.3706H86.3537Z" fill="#0065DD"/>
<path fill-rule="evenodd" clip-rule="evenodd" d="M119.259 48.3706V50.8016H121.74V48.3706H119.259Z" fill="#0065DD"/>
<path fill-rule="evenodd" clip-rule="evenodd" d="M53.4579 48.3706V50.8016H55.9477V48.3706H53.4579Z" fill="#0065DD"/>
<path fill-rule="evenodd" clip-rule="evenodd" d="M57.5748 56.4308V58.8619H60.056V56.4308H57.5748Z" fill="#0065DD"/>
<path fill-rule="evenodd" clip-rule="evenodd" d="M123.368 56.4308V58.8619H125.849V56.4308H123.368Z" fill="#0065DD"/>
<path fill-rule="evenodd" clip-rule="evenodd" d="M90.4713 56.4308V58.8619H92.9524V56.4308H90.4713Z" fill="#0065DD"/>
<path fill-rule="evenodd" clip-rule="evenodd" d="M24.6704 56.4308V58.8619H27.1602V56.4308H24.6704Z" fill="#0065DD"/>
<path fill-rule="evenodd" clip-rule="evenodd" d="M74.0188 56.4308V58.8619H76.5087V56.4308H74.0188Z" fill="#0065DD"/>
<path fill-rule="evenodd" clip-rule="evenodd" d="M139.82 56.4308V58.8619H142.301V56.4308H139.82Z" fill="#0065DD"/>
<path fill-rule="evenodd" clip-rule="evenodd" d="M106.915 56.4308V58.8619H109.405V56.4308H106.915Z" fill="#0065DD"/>
<path fill-rule="evenodd" clip-rule="evenodd" d="M41.1225 56.4308V58.8619H43.6035V56.4308H41.1225Z" fill="#0065DD"/>
<path fill-rule="evenodd" clip-rule="evenodd" d="M65.7924 56.4308V58.8619H68.2823V56.4308H65.7924Z" fill="#0065DD"/>
<path fill-rule="evenodd" clip-rule="evenodd" d="M131.594 56.4308V58.8619H134.075V56.4308H131.594Z" fill="#0065DD"/>
<path fill-rule="evenodd" clip-rule="evenodd" d="M98.6978 56.4308V58.8619H101.179V56.4308H98.6978Z" fill="#0065DD"/>
<path fill-rule="evenodd" clip-rule="evenodd" d="M82.2452 56.4308V58.8619H84.7264V56.4308H82.2452Z" fill="#0065DD"/>
<path fill-rule="evenodd" clip-rule="evenodd" d="M16.4525 56.4308V58.8619H18.9336V56.4308H16.4525Z" fill="#0065DD"/>
<path fill-rule="evenodd" clip-rule="evenodd" d="M115.141 56.4308V58.8619H117.631V56.4308H115.141Z" fill="#0065DD"/>
<path fill-rule="evenodd" clip-rule="evenodd" d="M49.3489 56.4308V58.8619H51.8299V56.4308H49.3489Z" fill="#0065DD"/>
<path fill-rule="evenodd" clip-rule="evenodd" d="M61.6838 56.4308V58.8619H64.165V56.4308H61.6838Z" fill="#0065DD"/>
<path fill-rule="evenodd" clip-rule="evenodd" d="M127.485 56.4308V58.8619H129.966V56.4308H127.485Z" fill="#0065DD"/>
<path fill-rule="evenodd" clip-rule="evenodd" d="M94.5802 56.4308V58.8619H97.0701V56.4308H94.5802Z" fill="#0065DD"/>
<path fill-rule="evenodd" clip-rule="evenodd" d="M28.7875 56.4308V58.8619H31.2685V56.4308H28.7875Z" fill="#0065DD"/>
<path fill-rule="evenodd" clip-rule="evenodd" d="M78.1364 56.4308V58.8619H80.6174V56.4308H78.1364Z" fill="#0065DD"/>
<path fill-rule="evenodd" clip-rule="evenodd" d="M143.929 56.4308V58.8619H146.41V56.4308H143.929Z" fill="#0065DD"/>
<path fill-rule="evenodd" clip-rule="evenodd" d="M111.033 56.4308V58.8619H113.514V56.4308H111.033Z" fill="#0065DD"/>
<path fill-rule="evenodd" clip-rule="evenodd" d="M45.2315 56.4308V58.8619H47.7212V56.4308H45.2315Z" fill="#0065DD"/>
<path fill-rule="evenodd" clip-rule="evenodd" d="M69.91 56.4308V58.8619H72.391V56.4308H69.91Z" fill="#0065DD"/>
<path fill-rule="evenodd" clip-rule="evenodd" d="M135.703 56.4308V58.8619H138.193V56.4308H135.703Z" fill="#0065DD"/>
<path fill-rule="evenodd" clip-rule="evenodd" d="M102.806 56.4308V58.8619H105.287V56.4308H102.806Z" fill="#0065DD"/>
<path fill-rule="evenodd" clip-rule="evenodd" d="M86.3537 56.4308V58.8619H88.8437V56.4308H86.3537Z" fill="#0065DD"/>
<path fill-rule="evenodd" clip-rule="evenodd" d="M20.5614 56.4308V58.8619H23.0424V56.4308H20.5614Z" fill="#0065DD"/>
<path fill-rule="evenodd" clip-rule="evenodd" d="M20.5614 68.5167V70.9478H23.0424V68.5167H20.5614Z" fill="#0065DD"/>
<path fill-rule="evenodd" clip-rule="evenodd" d="M119.259 56.4308V58.8619H121.74V56.4308H119.259Z" fill="#0065DD"/>
<path fill-rule="evenodd" clip-rule="evenodd" d="M53.4579 56.4308V58.8619H55.9477V56.4308H53.4579Z" fill="#0065DD"/>
<path fill-rule="evenodd" clip-rule="evenodd" d="M57.5748 40.3103V42.7413H60.056V40.3103H57.5748Z" fill="#0065DD"/>
<path fill-rule="evenodd" clip-rule="evenodd" d="M123.368 40.3103V42.7413H125.849V40.3103H123.368Z" fill="#0065DD"/>
<path fill-rule="evenodd" clip-rule="evenodd" d="M90.4713 40.3103V42.7413H92.9524V40.3103H90.4713Z" fill="#0065DD"/>
<path fill-rule="evenodd" clip-rule="evenodd" d="M24.6704 40.3103V42.7413H27.1602V40.3103H24.6704Z" fill="#0065DD"/>
<path fill-rule="evenodd" clip-rule="evenodd" d="M74.0188 40.3103V42.7413H76.5087V40.3103H74.0188Z" fill="#0065DD"/>
<path fill-rule="evenodd" clip-rule="evenodd" d="M106.915 40.3103V42.7413H109.405V40.3103H106.915Z" fill="#0065DD"/>
<path fill-rule="evenodd" clip-rule="evenodd" d="M41.1225 40.3103V42.7413H43.6035V40.3103H41.1225Z" fill="#0065DD"/>
<path fill-rule="evenodd" clip-rule="evenodd" d="M8.22643 56.4308V58.8619H10.7075V56.4308H8.22643Z" fill="#0065DD"/>
<path fill-rule="evenodd" clip-rule="evenodd" d="M65.7924 40.3103V42.7413H68.2823V40.3103H65.7924Z" fill="#0065DD"/>
<path fill-rule="evenodd" clip-rule="evenodd" d="M98.6978 40.3103V42.7413H101.179V40.3103H98.6978Z" fill="#0065DD"/>
<path fill-rule="evenodd" clip-rule="evenodd" d="M32.8963 40.3103V42.7413H35.3863V40.3103H32.8963Z" fill="#0065DD"/>
<path fill-rule="evenodd" clip-rule="evenodd" d="M0 56.4308V58.8619H2.48109V56.4308H0Z" fill="#0065DD"/>
<path fill-rule="evenodd" clip-rule="evenodd" d="M82.2452 40.3103V42.7413H84.7264V40.3103H82.2452Z" fill="#0065DD"/>
<path fill-rule="evenodd" clip-rule="evenodd" d="M115.141 40.3103V42.7413H117.631V40.3103H115.141Z" fill="#0065DD"/>
<path fill-rule="evenodd" clip-rule="evenodd" d="M49.3489 40.3103V42.7413H51.8299V40.3103H49.3489Z" fill="#0065DD"/>
<path fill-rule="evenodd" clip-rule="evenodd" d="M61.6838 40.3103V42.7413H64.165V40.3103H61.6838Z" fill="#0065DD"/>
<path fill-rule="evenodd" clip-rule="evenodd" d="M127.485 40.3103V42.7413H129.966V40.3103H127.485Z" fill="#0065DD"/>
<path fill-rule="evenodd" clip-rule="evenodd" d="M94.5802 40.3103V42.7413H97.0701V40.3103H94.5802Z" fill="#0065DD"/>
<path fill-rule="evenodd" clip-rule="evenodd" d="M28.7875 40.3103V42.7413H31.2685V40.3103H28.7875Z" fill="#0065DD"/>
<path fill-rule="evenodd" clip-rule="evenodd" d="M78.1364 40.3103V42.7413H80.6174V40.3103H78.1364Z" fill="#0065DD"/>
<path fill-rule="evenodd" clip-rule="evenodd" d="M111.033 40.3103V42.7413H113.514V40.3103H111.033Z" fill="#0065DD"/>
<path fill-rule="evenodd" clip-rule="evenodd" d="M45.2315 40.3103V42.7413H47.7212V40.3103H45.2315Z" fill="#0065DD"/>
<path fill-rule="evenodd" clip-rule="evenodd" d="M69.91 40.3103V42.7413H72.391V40.3103H69.91Z" fill="#0065DD"/>
<path fill-rule="evenodd" clip-rule="evenodd" d="M102.806 40.3103V42.7413H105.287V40.3103H102.806Z" fill="#0065DD"/>
<path fill-rule="evenodd" clip-rule="evenodd" d="M37.0135 40.3103V42.7413H39.4946V40.3103H37.0135Z" fill="#0065DD"/>
<path fill-rule="evenodd" clip-rule="evenodd" d="M4.10893 56.4308V58.8619H6.59882V56.4308H4.10893Z" fill="#0065DD"/>
<path fill-rule="evenodd" clip-rule="evenodd" d="M86.3537 40.3103V42.7413H88.8437V40.3103H86.3537Z" fill="#0065DD"/>
<path fill-rule="evenodd" clip-rule="evenodd" d="M119.259 40.3103V42.7413H121.74V40.3103H119.259Z" fill="#0065DD"/>
<path fill-rule="evenodd" clip-rule="evenodd" d="M53.4579 40.3103V42.7413H55.9477V40.3103H53.4579Z" fill="#0065DD"/>
<path d="M182.703 29.9113H194.589V31.875H180.551V12.1821H194.295V14.1596H182.703V20.6278H192.002V22.5916H182.703V29.9113Z" fill="#0065DD"/>
<path d="M215.758 31.875H213.619V15.9861L201.299 31.875H199.44V12.1821H201.594V28.0847L213.898 12.1821H215.758V31.875Z" fill="#0065DD"/>
<path d="M224.076 29.1972C222.073 27.2288 221.071 24.8392 221.071 22.0286C221.071 19.2178 222.073 16.8283 224.076 14.86C226.081 12.8916 228.513 11.9074 231.375 11.9074C232.392 11.9074 233.366 12.0493 234.298 12.3331C235.23 12.6078 236 12.942 236.605 13.3356C237.22 13.7293 237.757 14.1276 238.213 14.5304C238.679 14.9332 239.015 15.2766 239.22 15.5604L239.542 15.9861L238.102 17.2495C238.046 17.158 237.962 17.0389 237.85 16.8925C237.737 16.7367 237.477 16.4667 237.066 16.0822C236.657 15.6977 236.209 15.3589 235.725 15.066C235.249 14.7638 234.619 14.4892 233.837 14.242C233.054 13.9948 232.233 13.8712 231.375 13.8712C229.083 13.8712 227.148 14.654 225.573 16.2196C223.998 17.785 223.211 19.7214 223.211 22.0286C223.211 24.3356 223.998 26.2721 225.573 27.8375C227.148 29.4031 229.083 30.186 231.375 30.186C232.233 30.186 233.054 30.0714 233.837 29.8425C234.619 29.6045 235.268 29.3208 235.781 28.9911C236.303 28.6616 236.759 28.3366 237.15 28.0161C237.542 27.6866 237.822 27.3981 237.99 27.151L238.256 26.8077L239.682 28.0847C239.607 28.1947 239.491 28.3411 239.332 28.5242C239.184 28.6981 238.843 29.0186 238.312 29.4855C237.79 29.9525 237.235 30.3691 236.648 30.7352C236.061 31.1014 235.286 31.431 234.327 31.7239C233.375 32.0078 232.392 32.1497 231.375 32.1497C228.513 32.1497 226.081 31.1655 224.076 29.1972Z" fill="#0065DD"/>
<path d="M188.717 54.278C188.83 54.2963 188.973 54.342 189.151 54.4153C189.337 54.4794 189.668 54.6397 190.144 54.8959C190.62 55.1431 191.043 55.4361 191.417 55.7748C191.789 56.1136 192.125 56.5897 192.422 57.2031C192.721 57.8073 192.871 58.4756 192.871 59.2081C192.871 60.7463 192.185 62.092 190.815 63.2456C189.453 64.39 187.702 64.9622 185.557 64.9622C184.681 64.9622 183.833 64.8569 183.012 64.6464C182.193 64.4266 181.512 64.1703 180.971 63.8773C180.439 63.5752 179.968 63.2731 179.558 62.9709C179.149 62.6688 178.86 62.417 178.693 62.2156L178.398 61.8723L179.838 60.4716C179.894 60.5448 179.973 60.6409 180.077 60.76C180.188 60.8698 180.42 61.0713 180.775 61.3642C181.139 61.648 181.526 61.9044 181.936 62.1333C182.345 62.353 182.881 62.5544 183.543 62.7375C184.205 62.9114 184.876 62.9984 185.557 62.9984C187.142 62.9984 188.395 62.623 189.318 61.8723C190.25 61.1216 190.717 60.2334 190.717 59.2081C190.717 58.1003 190.25 57.1664 189.318 56.4066C188.395 55.6467 187.142 55.2667 185.557 55.2667H183.278V53.303H185.557C186.927 53.303 188.009 52.987 188.801 52.3553C189.603 51.7236 190.004 50.9592 190.004 50.062C190.004 49.1098 189.608 48.3088 188.815 47.6588C188.023 47.0088 186.937 46.6838 185.557 46.6838C184.625 46.6838 183.744 46.8714 182.915 47.2467C182.084 47.622 181.48 47.9975 181.096 48.3728L180.552 48.9359L179.125 47.5352C179.181 47.4619 179.27 47.3613 179.391 47.233C179.512 47.0956 179.778 46.8669 180.188 46.5464C180.598 46.2259 181.031 45.9467 181.488 45.7086C181.954 45.4614 182.55 45.2372 183.278 45.0358C184.014 44.8252 184.775 44.7198 185.557 44.7198C187.562 44.7198 189.161 45.2234 190.354 46.2305C191.547 47.2284 192.144 48.4598 192.144 49.9247C192.144 50.5655 192.021 51.1469 191.779 51.6688C191.547 52.1906 191.262 52.6072 190.927 52.9184C190.6 53.2297 190.27 53.4952 189.934 53.715C189.598 53.9255 189.304 54.0766 189.053 54.1681L188.717 54.278Z" fill="#334059"/>
<path d="M208.446 57.2306L204.588 47.9472L200.714 57.2306H208.446ZM209.313 59.2081H199.861L197.567 64.6875H195.275L203.581 44.9945H205.58L213.885 64.6875H211.607L209.313 59.2081Z" fill="#334059"/>
<path d="M220.344 56.1045L230.65 44.9945H233.362L225.783 53.1519L234.09 64.6875H231.503L224.344 54.7038L220.344 58.9197V64.6875H218.192V44.9945H220.344V56.1045Z" fill="#334059"/>
<path d="M244.254 56.5302L249.693 44.9945H251.987L244.534 60.3342C243.715 62.0188 242.879 63.2136 242.031 63.9184C241.183 64.6142 240.06 64.9622 238.662 64.9622C238.353 64.9622 238.046 64.9394 237.739 64.8936C237.44 64.8478 237.217 64.7973 237.068 64.7425L236.802 64.6875V62.7238C237.278 62.9069 237.85 62.9984 238.522 62.9984C239.416 62.9984 240.125 62.797 240.647 62.3942C241.179 61.9913 241.71 61.3047 242.241 60.3342L243.108 58.7824C242.493 57.638 241.328 55.4866 239.612 52.328C237.897 49.1694 236.578 46.7248 235.655 44.9945H237.949L244.254 56.5302Z" fill="#334059"/>
<path d="M271.465 44.9945V64.6875H269.311V46.972H258.152V64.6875H256V44.9945H271.465Z" fill="#334059"/>
<path d="M280.202 56.1045L290.508 44.9945H293.22L285.641 53.1519L293.948 64.6875H291.361L284.202 54.7038L280.202 58.9197V64.6875H278.05V44.9945H280.202V56.1045Z" fill="#334059"/>
<path d="M314.123 64.6875H311.985V48.7986L299.665 64.6875H297.805V44.9945H299.96V60.8972L312.264 44.9945H314.123V64.6875Z" fill="#334059"/>
</svg>
