<svg class="header__link-basket__icon" width="40" height="37" viewBox="0 0 40 37" fill="none" xmlns="http://www.w3.org/2000/svg">
    <path d="M1.8667 2.27002H8.80006" stroke="#fff" stroke-width="2" stroke-miterlimit="10" stroke-linecap="round"/>
    <path d="M8.7998 2.27002L14.6665 25.2369" stroke="#fff" stroke-width="2" stroke-miterlimit="10" stroke-linecap="round"/>
    <path d="M14.7368 25.2632H37.6316" stroke="#fff" stroke-width="2" stroke-miterlimit="10" stroke-linecap="round"/>
    <path d="M18.3999 34.3169C20.6091 34.3169 22.3999 32.5235 22.3999 30.311C22.3999 28.0987 20.6091 26.3052 18.3999 26.3052C16.1907 26.3052 14.3999 28.0987 14.3999 30.311C14.3999 32.5235 16.1907 34.3169 18.3999 34.3169Z" stroke="#fff" stroke-width="2" stroke-miterlimit="10" stroke-linecap="round"/>
    <path d="M33.7334 34.3169C35.9425 34.3169 37.7334 32.5235 37.7334 30.311C37.7334 28.0987 35.9425 26.3052 33.7334 26.3052C31.5242 26.3052 29.7334 28.0987 29.7334 30.311C29.7334 32.5235 31.5242 34.3169 33.7334 34.3169Z" stroke="#fff" stroke-width="2" stroke-miterlimit="10" stroke-linecap="round"/>
    <path d="M34.2666 19.4952H15.0666C14.2666 19.4952 13.4666 18.9611 13.3333 18.16L10.7999 9.21358C10.5333 8.01183 11.3332 6.9436 12.5332 6.9436H36.6666C37.8666 6.9436 38.7999 8.14536 38.3999 9.21358L35.8666 18.16C35.8666 18.9611 35.1999 19.4952 34.2666 19.4952Z" stroke="#fff" stroke-width="2" stroke-miterlimit="10" stroke-linecap="round"/>
</svg>