<svg width="223" height="69" viewBox="0 0 223 69" fill="none" xmlns="http://www.w3.org/2000/svg">
<path d="M73.8594 15.834H76.0566C75.9863 16.6719 75.752 17.4189 75.3535 18.0752C74.9551 18.7256 74.3955 19.2383 73.6748 19.6133C72.9541 19.9883 72.0781 20.1758 71.0469 20.1758C70.2559 20.1758 69.5439 20.0352 68.9111 19.7539C68.2783 19.4668 67.7363 19.0625 67.2852 18.541C66.834 18.0137 66.4883 17.3779 66.248 16.6338C66.0137 15.8896 65.8965 15.0576 65.8965 14.1377V13.0742C65.8965 12.1543 66.0166 11.3223 66.2568 10.5781C66.5029 9.83398 66.8545 9.19824 67.3115 8.6709C67.7686 8.1377 68.3164 7.73047 68.9551 7.44922C69.5996 7.16797 70.3232 7.02734 71.126 7.02734C72.1455 7.02734 73.0068 7.21484 73.71 7.58984C74.4131 7.96484 74.958 8.4834 75.3447 9.14551C75.7373 9.80762 75.9775 10.5664 76.0654 11.4219H73.8682C73.8096 10.8711 73.6807 10.3994 73.4814 10.0068C73.2881 9.61426 73.001 9.31543 72.6201 9.11035C72.2393 8.89941 71.7412 8.79395 71.126 8.79395C70.6221 8.79395 70.1826 8.8877 69.8076 9.0752C69.4326 9.2627 69.1191 9.53809 68.8672 9.90137C68.6152 10.2646 68.4248 10.7129 68.2959 11.2461C68.1729 11.7734 68.1113 12.377 68.1113 13.0566V14.1377C68.1113 14.7822 68.167 15.3682 68.2783 15.8955C68.3955 16.417 68.5713 16.8652 68.8057 17.2402C69.0459 17.6152 69.3506 17.9053 69.7197 18.1104C70.0889 18.3154 70.5312 18.418 71.0469 18.418C71.6738 18.418 72.1807 18.3184 72.5674 18.1191C72.96 17.9199 73.2559 17.6299 73.4551 17.249C73.6602 16.8623 73.7949 16.3906 73.8594 15.834ZM90.4355 7.20312V20H88.2383V8.96094H82.5518V20H80.3545V7.20312H90.4355ZM105.544 13.25V13.9531C105.544 14.9199 105.418 15.7871 105.166 16.5547C104.914 17.3223 104.554 17.9756 104.085 18.5146C103.622 19.0537 103.065 19.4668 102.415 19.7539C101.765 20.0352 101.044 20.1758 100.253 20.1758C99.4678 20.1758 98.75 20.0352 98.0996 19.7539C97.4551 19.4668 96.8955 19.0537 96.4209 18.5146C95.9463 17.9756 95.5771 17.3223 95.3135 16.5547C95.0557 15.7871 94.9268 14.9199 94.9268 13.9531V13.25C94.9268 12.2832 95.0557 11.4189 95.3135 10.6572C95.5713 9.88965 95.9346 9.23633 96.4033 8.69727C96.8779 8.15234 97.4375 7.73926 98.082 7.45801C98.7324 7.1709 99.4502 7.02734 100.235 7.02734C101.026 7.02734 101.747 7.1709 102.397 7.45801C103.048 7.73926 103.607 8.15234 104.076 8.69727C104.545 9.23633 104.905 9.88965 105.157 10.6572C105.415 11.4189 105.544 12.2832 105.544 13.25ZM103.338 13.9531V13.2324C103.338 12.5176 103.268 11.8877 103.127 11.3428C102.992 10.792 102.79 10.332 102.521 9.96289C102.257 9.58789 101.932 9.30664 101.545 9.11914C101.158 8.92578 100.722 8.8291 100.235 8.8291C99.749 8.8291 99.3154 8.92578 98.9346 9.11914C98.5537 9.30664 98.2285 9.58789 97.959 9.96289C97.6953 10.332 97.4932 10.792 97.3525 11.3428C97.2119 11.8877 97.1416 12.5176 97.1416 13.2324V13.9531C97.1416 14.668 97.2119 15.3008 97.3525 15.8516C97.4932 16.4023 97.6982 16.8682 97.9678 17.249C98.2432 17.624 98.5713 17.9082 98.9521 18.1016C99.333 18.2891 99.7666 18.3828 100.253 18.3828C100.745 18.3828 101.182 18.2891 101.562 18.1016C101.943 17.9082 102.266 17.624 102.529 17.249C102.793 16.8682 102.992 16.4023 103.127 15.8516C103.268 15.3008 103.338 14.668 103.338 13.9531ZM114.86 15.2275H111.529V13.4785H114.86C115.44 13.4785 115.909 13.3848 116.267 13.1973C116.624 13.0098 116.885 12.752 117.049 12.4238C117.219 12.0898 117.304 11.709 117.304 11.2812C117.304 10.877 117.219 10.499 117.049 10.1475C116.885 9.79004 116.624 9.50293 116.267 9.28613C115.909 9.06934 115.44 8.96094 114.86 8.96094H112.206V20H110V7.20312H114.86C115.851 7.20312 116.691 7.37891 117.383 7.73047C118.08 8.07617 118.61 8.55664 118.974 9.17188C119.337 9.78125 119.519 10.4785 119.519 11.2637C119.519 12.0898 119.337 12.7988 118.974 13.3906C118.61 13.9824 118.08 14.4365 117.383 14.7529C116.691 15.0693 115.851 15.2275 114.86 15.2275ZM129.011 7.20312V20H126.822V7.20312H129.011ZM133.027 7.20312V8.96094H122.841V7.20312H133.027ZM139.145 16.4053L144.822 7.20312H147.028V20H144.822V10.7891L139.145 20H136.947V7.20312H139.145V16.4053ZM156.723 14.2168H153.462L153.444 12.6084H156.292C156.772 12.6084 157.18 12.5381 157.514 12.3975C157.854 12.251 158.111 12.043 158.287 11.7734C158.463 11.498 158.551 11.167 158.551 10.7803C158.551 10.3525 158.469 10.0039 158.305 9.73438C158.141 9.46484 157.889 9.26855 157.549 9.14551C157.215 9.02246 156.787 8.96094 156.266 8.96094H154.13V20H151.924V7.20312H156.266C156.969 7.20312 157.596 7.27051 158.146 7.40527C158.703 7.54004 159.175 7.75098 159.562 8.03809C159.954 8.31934 160.25 8.67676 160.449 9.11035C160.654 9.54395 160.757 10.0596 160.757 10.6572C160.757 11.1846 160.631 11.668 160.379 12.1074C160.127 12.541 159.755 12.8955 159.263 13.1709C158.771 13.4463 158.158 13.6104 157.426 13.6631L156.723 14.2168ZM156.626 20H152.768L153.761 18.251H156.626C157.124 18.251 157.54 18.1689 157.874 18.0049C158.208 17.835 158.457 17.6035 158.621 17.3105C158.791 17.0117 158.876 16.6631 158.876 16.2646C158.876 15.8486 158.803 15.4883 158.656 15.1836C158.51 14.873 158.278 14.6357 157.962 14.4717C157.646 14.3018 157.232 14.2168 156.723 14.2168H154.244L154.262 12.6084H157.487L157.988 13.2148C158.691 13.2383 159.269 13.3936 159.72 13.6807C160.177 13.9678 160.517 14.3398 160.739 14.7969C160.962 15.2539 161.073 15.7461 161.073 16.2734C161.073 17.0879 160.895 17.7705 160.537 18.3213C160.186 18.8721 159.679 19.291 159.017 19.5781C158.354 19.8594 157.558 20 156.626 20ZM174.002 12.5469V14.2959H167.208V12.5469H174.002ZM167.753 7.20312V20H165.547V7.20312H167.753ZM175.698 7.20312V20H173.501V7.20312H175.698ZM190.78 13.25V13.9531C190.78 14.9199 190.654 15.7871 190.402 16.5547C190.15 17.3223 189.79 17.9756 189.321 18.5146C188.858 19.0537 188.302 19.4668 187.651 19.7539C187.001 20.0352 186.28 20.1758 185.489 20.1758C184.704 20.1758 183.986 20.0352 183.336 19.7539C182.691 19.4668 182.132 19.0537 181.657 18.5146C181.183 17.9756 180.813 17.3223 180.55 16.5547C180.292 15.7871 180.163 14.9199 180.163 13.9531V13.25C180.163 12.2832 180.292 11.4189 180.55 10.6572C180.808 9.88965 181.171 9.23633 181.64 8.69727C182.114 8.15234 182.674 7.73926 183.318 7.45801C183.969 7.1709 184.687 7.02734 185.472 7.02734C186.263 7.02734 186.983 7.1709 187.634 7.45801C188.284 7.73926 188.844 8.15234 189.312 8.69727C189.781 9.23633 190.142 9.88965 190.394 10.6572C190.651 11.4189 190.78 12.2832 190.78 13.25ZM188.574 13.9531V13.2324C188.574 12.5176 188.504 11.8877 188.363 11.3428C188.229 10.792 188.026 10.332 187.757 9.96289C187.493 9.58789 187.168 9.30664 186.781 9.11914C186.395 8.92578 185.958 8.8291 185.472 8.8291C184.985 8.8291 184.552 8.92578 184.171 9.11914C183.79 9.30664 183.465 9.58789 183.195 9.96289C182.932 10.332 182.729 10.792 182.589 11.3428C182.448 11.8877 182.378 12.5176 182.378 13.2324V13.9531C182.378 14.668 182.448 15.3008 182.589 15.8516C182.729 16.4023 182.935 16.8682 183.204 17.249C183.479 17.624 183.808 17.9082 184.188 18.1016C184.569 18.2891 185.003 18.3828 185.489 18.3828C185.981 18.3828 186.418 18.2891 186.799 18.1016C187.18 17.9082 187.502 17.624 187.766 17.249C188.029 16.8682 188.229 16.4023 188.363 15.8516C188.504 15.3008 188.574 14.668 188.574 13.9531ZM203.612 18.251V20H196.818V18.251H203.612ZM197.442 7.20312V20H195.236V7.20312H197.442ZM202.725 12.5469V14.2695H196.818V12.5469H202.725ZM203.568 7.20312V8.96094H196.818V7.20312H203.568ZM71.2842 29.9082L67.4609 41H65.1494L69.9658 28.2031H71.4424L71.2842 29.9082ZM74.4834 41L70.6514 29.9082L70.4844 28.2031H71.9697L76.8037 41H74.4834ZM74.2988 36.2539V38.0029H67.3379V36.2539H74.2988ZM88.6689 28.2031V29.9609H82.7275V41H80.5303V28.2031H88.6689ZM101.132 39.251V41H94.3379V39.251H101.132ZM94.9619 28.2031V41H92.7559V28.2031H94.9619ZM100.244 33.5469V35.2695H94.3379V33.5469H100.244ZM101.088 28.2031V29.9609H94.3379V28.2031H101.088ZM113.639 33.5469V35.2959H106.845V33.5469H113.639ZM107.39 28.2031V41H105.184V28.2031H107.39ZM115.335 28.2031V41H113.138V28.2031H115.335ZM125.214 28.2031V41H123.025V28.2031H125.214ZM129.23 28.2031V29.9609H119.044V28.2031H129.23ZM140.48 36.834H142.678C142.607 37.6719 142.373 38.4189 141.975 39.0752C141.576 39.7256 141.017 40.2383 140.296 40.6133C139.575 40.9883 138.699 41.1758 137.668 41.1758C136.877 41.1758 136.165 41.0352 135.532 40.7539C134.899 40.4668 134.357 40.0625 133.906 39.541C133.455 39.0137 133.109 38.3779 132.869 37.6338C132.635 36.8896 132.518 36.0576 132.518 35.1377V34.0742C132.518 33.1543 132.638 32.3223 132.878 31.5781C133.124 30.834 133.476 30.1982 133.933 29.6709C134.39 29.1377 134.938 28.7305 135.576 28.4492C136.221 28.168 136.944 28.0273 137.747 28.0273C138.767 28.0273 139.628 28.2148 140.331 28.5898C141.034 28.9648 141.579 29.4834 141.966 30.1455C142.358 30.8076 142.599 31.5664 142.687 32.4219H140.489C140.431 31.8711 140.302 31.3994 140.103 31.0068C139.909 30.6143 139.622 30.3154 139.241 30.1104C138.86 29.8994 138.362 29.7939 137.747 29.7939C137.243 29.7939 136.804 29.8877 136.429 30.0752C136.054 30.2627 135.74 30.5381 135.488 30.9014C135.236 31.2646 135.046 31.7129 134.917 32.2461C134.794 32.7734 134.732 33.377 134.732 34.0566V35.1377C134.732 35.7822 134.788 36.3682 134.899 36.8955C135.017 37.417 135.192 37.8652 135.427 38.2402C135.667 38.6152 135.972 38.9053 136.341 39.1104C136.71 39.3154 137.152 39.418 137.668 39.418C138.295 39.418 138.802 39.3184 139.188 39.1191C139.581 38.9199 139.877 38.6299 140.076 38.249C140.281 37.8623 140.416 37.3906 140.48 36.834ZM151.933 28.2031V41H149.744V28.2031H151.933ZM155.949 28.2031V29.9609H145.763V28.2031H155.949ZM164.686 35.2168H161.425L161.407 33.6084H164.255C164.735 33.6084 165.143 33.5381 165.477 33.3975C165.816 33.251 166.074 33.043 166.25 32.7734C166.426 32.498 166.514 32.167 166.514 31.7803C166.514 31.3525 166.432 31.0039 166.268 30.7344C166.104 30.4648 165.852 30.2686 165.512 30.1455C165.178 30.0225 164.75 29.9609 164.229 29.9609H162.093V41H159.887V28.2031H164.229C164.932 28.2031 165.559 28.2705 166.109 28.4053C166.666 28.54 167.138 28.751 167.524 29.0381C167.917 29.3193 168.213 29.6768 168.412 30.1104C168.617 30.5439 168.72 31.0596 168.72 31.6572C168.72 32.1846 168.594 32.668 168.342 33.1074C168.09 33.541 167.718 33.8955 167.226 34.1709C166.733 34.4463 166.121 34.6104 165.389 34.6631L164.686 35.2168ZM164.589 41H160.73L161.724 39.251H164.589C165.087 39.251 165.503 39.1689 165.837 39.0049C166.171 38.835 166.42 38.6035 166.584 38.3105C166.754 38.0117 166.839 37.6631 166.839 37.2646C166.839 36.8486 166.766 36.4883 166.619 36.1836C166.473 35.873 166.241 35.6357 165.925 35.4717C165.608 35.3018 165.195 35.2168 164.686 35.2168H162.207L162.225 33.6084H165.45L165.951 34.2148C166.654 34.2383 167.231 34.3936 167.683 34.6807C168.14 34.9678 168.479 35.3398 168.702 35.7969C168.925 36.2539 169.036 36.7461 169.036 37.2734C169.036 38.0879 168.857 38.7705 168.5 39.3213C168.148 39.8721 167.642 40.291 166.979 40.5781C166.317 40.8594 165.521 41 164.589 41ZM183.714 34.25V34.9531C183.714 35.9199 183.588 36.7871 183.336 37.5547C183.084 38.3223 182.724 38.9756 182.255 39.5146C181.792 40.0537 181.235 40.4668 180.585 40.7539C179.935 41.0352 179.214 41.1758 178.423 41.1758C177.638 41.1758 176.92 41.0352 176.27 40.7539C175.625 40.4668 175.065 40.0537 174.591 39.5146C174.116 38.9756 173.747 38.3223 173.483 37.5547C173.226 36.7871 173.097 35.9199 173.097 34.9531V34.25C173.097 33.2832 173.226 32.4189 173.483 31.6572C173.741 30.8896 174.104 30.2363 174.573 29.6973C175.048 29.1523 175.607 28.7393 176.252 28.458C176.902 28.1709 177.62 28.0273 178.405 28.0273C179.196 28.0273 179.917 28.1709 180.567 28.458C181.218 28.7393 181.777 29.1523 182.246 29.6973C182.715 30.2363 183.075 30.8896 183.327 31.6572C183.585 32.4189 183.714 33.2832 183.714 34.25ZM181.508 34.9531V34.2324C181.508 33.5176 181.438 32.8877 181.297 32.3428C181.162 31.792 180.96 31.332 180.69 30.9629C180.427 30.5879 180.102 30.3066 179.715 30.1191C179.328 29.9258 178.892 29.8291 178.405 29.8291C177.919 29.8291 177.485 29.9258 177.104 30.1191C176.724 30.3066 176.398 30.5879 176.129 30.9629C175.865 31.332 175.663 31.792 175.522 32.3428C175.382 32.8877 175.312 33.5176 175.312 34.2324V34.9531C175.312 35.668 175.382 36.3008 175.522 36.8516C175.663 37.4023 175.868 37.8682 176.138 38.249C176.413 38.624 176.741 38.9082 177.122 39.1016C177.503 39.2891 177.937 39.3828 178.423 39.3828C178.915 39.3828 179.352 39.2891 179.732 39.1016C180.113 38.9082 180.436 38.624 180.699 38.249C180.963 37.8682 181.162 37.4023 181.297 36.8516C181.438 36.3008 181.508 35.668 181.508 34.9531ZM66.2744 49.2031H68.4805V53.167C68.4805 53.7705 68.5713 54.2451 68.7529 54.5908C68.9346 54.9307 69.21 55.1709 69.5791 55.3115C69.9541 55.4521 70.4199 55.5225 70.9766 55.5225C71.2461 55.5225 71.5303 55.5107 71.8291 55.4873C72.1279 55.4639 72.4268 55.4316 72.7256 55.3906C73.0303 55.3438 73.3232 55.291 73.6045 55.2324C73.8857 55.168 74.1436 55.0977 74.3779 55.0215V56.7705C74.1494 56.8408 73.8975 56.9082 73.6221 56.9727C73.3525 57.0371 73.0713 57.0928 72.7783 57.1396C72.4854 57.1807 72.1865 57.2129 71.8818 57.2363C71.5771 57.2598 71.2754 57.2715 70.9766 57.2715C70.0098 57.2715 69.1748 57.1338 68.4717 56.8584C67.7686 56.5771 67.2266 56.1348 66.8457 55.5312C66.4648 54.9277 66.2744 54.1396 66.2744 53.167V49.2031ZM73.877 49.2031H76.083V62H73.877V49.2031ZM89.3545 60.251V62H82.5605V60.251H89.3545ZM83.1846 49.2031V62H80.9785V49.2031H83.1846ZM88.4668 54.5469V56.2695H82.5605V54.5469H88.4668ZM89.3105 49.2031V50.9609H82.5605V49.2031H89.3105ZM94.3027 49.2031H96.2715L99.9717 59.0732L103.663 49.2031H105.632L100.745 62H99.1807L94.3027 49.2031ZM93.4062 49.2031H95.2783L95.6035 57.7461V62H93.4062V49.2031ZM104.656 49.2031H106.537V62H104.331V57.7461L104.656 49.2031ZM121.531 49.2031V62H119.334V50.9609H113.647V62H111.45V49.2031H121.531ZM128.615 58.4053L134.293 49.2031H136.499V62H134.293V52.7891L128.615 62H126.418V49.2031H128.615V58.4053ZM151.599 55.25V55.9531C151.599 56.9199 151.473 57.7871 151.221 58.5547C150.969 59.3223 150.608 59.9756 150.14 60.5146C149.677 61.0537 149.12 61.4668 148.47 61.7539C147.819 62.0352 147.099 62.1758 146.308 62.1758C145.522 62.1758 144.805 62.0352 144.154 61.7539C143.51 61.4668 142.95 61.0537 142.476 60.5146C142.001 59.9756 141.632 59.3223 141.368 58.5547C141.11 57.7871 140.981 56.9199 140.981 55.9531V55.25C140.981 54.2832 141.11 53.4189 141.368 52.6572C141.626 51.8896 141.989 51.2363 142.458 50.6973C142.933 50.1523 143.492 49.7393 144.137 49.458C144.787 49.1709 145.505 49.0273 146.29 49.0273C147.081 49.0273 147.802 49.1709 148.452 49.458C149.103 49.7393 149.662 50.1523 150.131 50.6973C150.6 51.2363 150.96 51.8896 151.212 52.6572C151.47 53.4189 151.599 54.2832 151.599 55.25ZM149.393 55.9531V55.2324C149.393 54.5176 149.322 53.8877 149.182 53.3428C149.047 52.792 148.845 52.332 148.575 51.9629C148.312 51.5879 147.986 51.3066 147.6 51.1191C147.213 50.9258 146.776 50.8291 146.29 50.8291C145.804 50.8291 145.37 50.9258 144.989 51.1191C144.608 51.3066 144.283 51.5879 144.014 51.9629C143.75 52.332 143.548 52.792 143.407 53.3428C143.267 53.8877 143.196 54.5176 143.196 55.2324V55.9531C143.196 56.668 143.267 57.3008 143.407 57.8516C143.548 58.4023 143.753 58.8682 144.022 59.249C144.298 59.624 144.626 59.9082 145.007 60.1016C145.388 60.2891 145.821 60.3828 146.308 60.3828C146.8 60.3828 147.236 60.2891 147.617 60.1016C147.998 59.9082 148.32 59.624 148.584 59.249C148.848 58.8682 149.047 58.4023 149.182 57.8516C149.322 57.3008 149.393 56.668 149.393 55.9531ZM164.51 54.5469V56.2959H157.716V54.5469H164.51ZM158.261 49.2031V62H156.055V49.2031H158.261ZM166.206 49.2031V62H164.009V49.2031H166.206Z" fill="#D2BB43"/>
<path d="M67 1L204 1M67 68H167.135" stroke="#D2BB43" stroke-width="2" stroke-linecap="round"/>
<path d="M46.8056 62.7667V58.4286C46.8056 56.2194 45.0147 54.4286 42.8056 54.4286H20.0618C17.8526 54.4286 16.0618 56.2195 16.0618 58.4286V62.7667" stroke="#D2BB43" stroke-width="2"/>
<rect x="12.1033" y="63.2" width="38.6611" height="4.80001" rx="1" stroke="#D2BB43" stroke-width="2"/>
<rect x="25.3057" y="41.8286" width="11.8843" height="3.82858" rx="1" stroke="#D2BB43" stroke-width="2"/>
<path d="M20.9308 38.0084L20.231 38.7228L20.231 38.7228L20.9308 38.0084ZM19.652 36.7558L20.3517 36.0414L20.3517 36.0414L19.652 36.7558ZM18.0934 39.1138C17.5411 39.1138 17.0934 39.5615 17.0934 40.1138C17.0934 40.6661 17.5411 41.1138 18.0934 41.1138V39.1138ZM18.9707 36.256L18.4994 37.138L18.4994 37.138L18.9707 36.256ZM13.8926 33.5428L13.3859 34.405L13.4034 34.4153L13.4213 34.4248L13.8926 33.5428ZM11.6133 32.2033L12.12 31.3411L12.12 31.3411L11.6133 32.2033ZM6.71367 28.4538L6.01392 29.1682L6.01392 29.1682L6.71367 28.4538ZM5.54227 27.3064L6.24202 26.592L6.24202 26.592L5.54227 27.3064ZM2.54904 22.5519L1.60235 22.8741L2.54904 22.5519ZM1.99174 20.9142L1.0228 21.1615L1.03246 21.1994L1.04505 21.2364L1.99174 20.9142ZM1.46645 18.8561L0.497511 19.1034L0.497511 19.1034L1.46645 18.8561ZM1.16077 12.1846L2.10746 12.5068L2.10746 12.5068L1.16077 12.1846ZM1.1886 12.1029L0.241911 11.7807L0.241911 11.7807L1.1886 12.1029ZM2.29446 10.6784L1.7477 9.84116L1.7477 9.84116L2.29446 10.6784ZM3.68784 24.9785L2.83511 25.5008L2.83511 25.5008L3.68784 24.9785ZM20.9308 39.763L20.231 39.0486L20.231 39.0486L20.9308 39.763ZM21.6305 37.294L20.3517 36.0414L18.9522 37.4701L20.231 38.7228L21.6305 37.294ZM18.0934 41.1138H20.0714V39.1138H18.0934V41.1138ZM19.4419 35.374L14.3638 32.6608L13.4213 34.4248L18.4994 37.138L19.4419 35.374ZM14.3992 32.6807L12.12 31.3411L11.1066 33.0654L13.3859 34.405L14.3992 32.6807ZM7.41343 27.7394L6.24202 26.592L4.84251 28.0208L6.01392 29.1682L7.41343 27.7394ZM3.49573 22.2298L2.93842 20.5921L1.04505 21.2364L1.60235 22.8741L3.49573 22.2298ZM2.96067 20.6669L2.43539 18.6088L0.497511 19.1034L1.0228 21.1615L2.96067 20.6669ZM2 15.1423V13.1561H0V15.1423H2ZM2.10746 12.5068L2.13528 12.425L0.241911 11.7807L0.214087 11.8625L2.10746 12.5068ZM3.80637 11.2285H8.93388V9.22852H3.80637V11.2285ZM8.93388 11.2285H14.8843V9.22852H8.93388V11.2285ZM2.13528 12.425C2.26238 12.0516 2.51091 11.7314 2.84123 11.5157L1.7477 9.84116C1.04314 10.3013 0.513002 10.9841 0.241911 11.7807L2.13528 12.425ZM2 13.1561C2 12.9353 2.0363 12.7159 2.10746 12.5068L0.214087 11.8625C0.0723265 12.2791 0 12.7161 0 13.1561H2ZM4.54058 24.4561C4.11106 23.7549 3.76064 23.0082 3.49573 22.2298L1.60235 22.8741C1.9149 23.7925 2.32835 24.6735 2.83511 25.5008L4.54058 24.4561ZM6.24202 26.592C5.58929 25.9526 5.01784 25.2353 4.54058 24.4561L2.83511 25.5008C3.39819 26.42 4.0724 27.2664 4.84251 28.0208L6.24202 26.592ZM20.0714 41.1138C20.6544 41.1138 21.2141 40.8853 21.6305 40.4774L20.231 39.0486C20.1884 39.0904 20.1311 39.1138 20.0714 39.1138V41.1138ZM20.3517 36.0414C20.0817 35.7769 19.7753 35.5521 19.4419 35.374L18.4994 37.138C18.6654 37.2267 18.8178 37.3385 18.9522 37.4702L20.3517 36.0414ZM12.12 31.3411C10.4105 30.3364 8.82995 29.1269 7.41343 27.7394L6.01392 29.1682C7.54666 30.6695 9.25685 31.9783 11.1066 33.0654L12.12 31.3411ZM20.231 38.7228C20.3223 38.8122 20.3223 38.9592 20.231 39.0486L21.6305 40.4774C22.5225 39.6037 22.5225 38.1677 21.6305 37.294L20.231 38.7228ZM2.43539 18.6088C2.14627 17.476 2 16.3115 2 15.1423H0C0 16.4783 0.167135 17.809 0.497511 19.1034L2.43539 18.6088ZM2.84123 11.5157C3.12823 11.3283 3.46359 11.2285 3.80637 11.2285V9.22852C3.07522 9.22852 2.35989 9.44139 1.7477 9.84116L2.84123 11.5157Z" fill="#D2BB43"/>
<path d="M41.0659 38.2246L40.3634 37.5129L40.3634 37.5129L41.0659 38.2246ZM42.3454 36.9617L43.0478 37.6734L43.0478 37.6734L42.3454 36.9617ZM43.9066 39.3428C44.4589 39.3428 44.9066 39.7906 44.9066 40.3428C44.9066 40.8951 44.4589 41.3428 43.9066 41.3428V39.3428ZM43.0334 36.4533L42.5593 35.5728L42.5593 35.5728L43.0334 36.4533ZM48.1074 33.7215L48.617 34.582L48.5995 34.5924L48.5815 34.602L48.1074 33.7215ZM50.377 32.3775L50.8865 33.2379L50.8865 33.2379L50.377 32.3775ZM55.2905 28.5894L55.9929 29.3011L55.9929 29.3011L55.2905 28.5894ZM56.4542 27.4408L55.7517 26.7291L55.7517 26.7291L56.4542 27.4408ZM59.4497 22.6502L60.3971 22.9701L60.3971 22.9701L59.4497 22.6502ZM60.0083 20.9962L60.9777 21.2417L60.9681 21.2793L60.9557 21.3161L60.0083 20.9962ZM60.5334 18.9229L61.5028 19.1685L60.5334 18.9229ZM60.8398 12.2013L61.7872 11.8814L61.7872 11.8814L60.8398 12.2013ZM60.8088 12.1096L59.8614 12.4296L59.8614 12.4296L60.8088 12.1096ZM59.7086 10.6839L59.1589 11.5193L59.1589 11.5193L59.7086 10.6839ZM58.3133 25.0896L59.1678 25.609L59.1678 25.609L58.3133 25.0896ZM41.0659 39.9861L40.3634 40.6978L40.3634 40.6978L41.0659 39.9861ZM40.3634 37.5129L41.6429 36.25L43.0478 37.6734L41.7683 38.9363L40.3634 37.5129ZM43.9066 41.3428H41.9352V39.3428H43.9066V41.3428ZM42.5593 35.5728L47.6334 32.841L48.5815 34.602L43.5074 37.3338L42.5593 35.5728ZM47.5979 32.8611L49.8674 31.5171L50.8865 33.2379L48.617 34.582L47.5979 32.8611ZM54.588 27.8777L55.7517 26.7291L57.1567 28.1525L55.9929 29.3011L54.588 27.8777ZM58.5022 22.3302L59.0608 20.6762L60.9557 21.3161L60.3971 22.9701L58.5022 22.3302ZM59.0389 20.7506L59.564 18.6774L61.5028 19.1685L60.9777 21.2417L59.0389 20.7506ZM60 15.1802V13.1764H62V15.1802H60ZM59.8924 12.5213L59.8614 12.4296L61.7563 11.7897L61.7872 11.8814L59.8924 12.5213ZM58.1881 11.2285H53.0661V9.22852H58.1881V11.2285ZM53.0661 11.2285H47.1157V9.22852H53.0661V11.2285ZM59.8614 12.4296C59.7353 12.0563 59.4881 11.7359 59.1589 11.5193L60.2583 9.84855C60.9602 10.3104 61.4874 10.9937 61.7563 11.7897L59.8614 12.4296ZM60 13.1764C60 12.9536 59.9636 12.7324 59.8924 12.5213L61.7872 11.8814C61.9281 12.2986 62 12.736 62 13.1764H60ZM57.4588 24.5701C57.888 23.8642 58.2379 23.113 58.5022 22.3302L60.3971 22.9701C60.0857 23.8923 59.6734 24.7773 59.1678 25.609L57.4588 24.5701ZM55.7517 26.7291C56.4071 26.0822 56.9805 25.3571 57.4588 24.5701L59.1678 25.609C58.6043 26.5361 57.9288 27.3903 57.1567 28.1525L55.7517 26.7291ZM41.9352 41.3428C41.3468 41.3428 40.7821 41.1111 40.3634 40.6978L41.7683 39.2744C41.8128 39.3182 41.8727 39.3428 41.9352 39.3428V41.3428ZM41.6429 36.25C41.9146 35.9818 42.2232 35.7538 42.5593 35.5728L43.5074 37.3338C43.3389 37.4246 43.1841 37.5389 43.0478 37.6734L41.6429 36.25ZM49.8674 31.5171C51.5833 30.5008 53.1686 29.2787 54.588 27.8777L55.9929 29.3011C54.4576 30.8166 52.7427 32.1386 50.8865 33.2379L49.8674 31.5171ZM41.7683 38.9363C41.6741 39.0293 41.6741 39.1814 41.7683 39.2744L40.3634 40.6978C39.4758 39.8217 39.4758 38.389 40.3634 37.5129L41.7683 38.9363ZM59.564 18.6774C59.8535 17.5342 60 16.3595 60 15.1802H62C62 16.5251 61.833 17.8647 61.5028 19.1685L59.564 18.6774ZM59.1589 11.5193C58.8707 11.3296 58.5331 11.2285 58.1881 11.2285V9.22852C58.9239 9.22852 59.6436 9.44407 60.2583 9.84855L59.1589 11.5193Z" fill="#D2BB43"/>
<path d="M23.3152 54.2668L23.3152 52.8764C23.3152 51.8383 23.7279 50.8377 24.465 50.0891L24.5562 49.9964L25.6816 49.1246C26.0241 48.8593 26.3213 48.5416 26.5619 48.1839L27.0383 47.4756L27.6114 46.3334" stroke="#D2BB43" stroke-width="2" stroke-linecap="round" stroke-linejoin="round"/>
<path d="M39.2927 54.2668L39.2926 53.2547C39.2926 52.2097 38.8744 51.203 38.1286 50.453L38.0683 50.3924L36.9737 49.5568C36.6232 49.2893 36.3192 48.9672 36.0738 48.6035L35.6194 47.9302L34.7858 46.3057" stroke="#D2BB43" stroke-width="2" stroke-linecap="round" stroke-linejoin="round"/>
<path d="M24.3067 42.2292C24.7002 42.6167 25.3334 42.6118 25.7208 42.2182C26.1083 41.8247 26.1034 41.1915 25.7098 40.804L24.3067 42.2292ZM22.3223 38.8722L21.575 39.5367C21.5897 39.5532 21.6049 39.5693 21.6207 39.5848L22.3223 38.8722ZM21.9323 38.4336L21.185 39.098L21.185 39.098L21.9323 38.4336ZM15.4819 16.7649L16.4803 16.7085L15.4819 16.7649ZM15.3801 14.962L16.3786 14.9056L16.3778 14.8929L15.3801 14.962ZM15.8819 7.73086C15.8437 7.17989 15.3662 6.76417 14.8152 6.80231C14.2642 6.84046 13.8485 7.31803 13.8867 7.869L15.8819 7.73086ZM17.3636 30.5768L16.3865 30.7896C16.3945 30.8261 16.4045 30.8622 16.4165 30.8976L17.3636 30.5768ZM25.7098 40.804L23.0239 38.1596L21.6207 39.5848L24.3067 42.2292L25.7098 40.804ZM23.0696 38.2077L22.6796 37.7691L21.185 39.098L21.575 39.5367L23.0696 38.2077ZM16.4803 16.7085L16.3786 14.9056L14.3817 15.0183L14.4835 16.8212L16.4803 16.7085ZM16.3778 14.8929L15.8819 7.73086L13.8867 7.869L14.3825 15.031L16.3778 14.8929ZM16.4165 30.8976C17.4412 33.9227 19.0627 36.7112 21.185 39.098L22.6796 37.7691C20.7352 35.5823 19.2496 33.0275 18.3108 30.256L16.4165 30.8976ZM18.3407 30.364C17.3617 25.8683 16.7397 21.3022 16.4803 16.7085L14.4835 16.8212C14.7488 21.5202 15.3851 26.1909 16.3865 30.7896L18.3407 30.364Z" fill="#D2BB43"/>
<path d="M45.1322 30.6286L46.1091 30.8423C46.1011 30.879 46.091 30.9152 46.0789 30.9507L45.1322 30.6286ZM45.6429 23.6148C45.761 23.0753 46.294 22.7336 46.8335 22.8517C47.3731 22.9697 47.7148 23.5027 47.5967 24.0423L45.6429 23.6148ZM38.1405 42.2364C37.743 42.6198 37.1099 42.6084 36.7265 42.2109C36.3431 41.8134 36.3545 41.1804 36.752 40.7969L38.1405 42.2364ZM40.1736 38.8857L40.9193 39.5519C40.9028 39.5704 40.8857 39.5882 40.8678 39.6054L40.1736 38.8857ZM40.5684 38.4437L41.3142 39.1099L41.3142 39.1099L40.5684 38.4437ZM47.1157 15.0857L46.1173 15.0291L46.1176 15.0234L47.1157 15.0857ZM46.5721 7.73767C46.6065 7.18645 47.0812 6.76748 47.6324 6.80187C48.1837 6.83625 48.6026 7.31097 48.5683 7.86219L46.5721 7.73767ZM47.9901 17.328C47.9589 17.8794 47.4865 18.3011 46.9351 18.2698C46.3837 18.2385 45.9621 17.7662 45.9933 17.2148L47.9901 17.328ZM44.1553 30.4148L45.6429 23.6148L47.5967 24.0423L46.1091 30.8423L44.1553 30.4148ZM36.752 40.7969L39.4793 38.166L40.8678 39.6054L38.1405 42.2364L36.752 40.7969ZM39.4278 38.2195L39.8226 37.7775L41.3142 39.1099L40.9193 39.5519L39.4278 38.2195ZM46.1176 15.0234L46.5721 7.73767L48.5683 7.86219L48.1138 15.1479L46.1176 15.0234ZM45.9933 17.2148L46.1173 15.0291L48.1141 15.1423L47.9901 17.328L45.9933 17.2148ZM46.0789 30.9507C45.054 33.9625 43.4336 36.7373 41.3142 39.1099L39.8226 37.7775C41.7633 35.605 43.2471 33.0642 44.1855 30.3064L46.0789 30.9507Z" fill="#D2BB43"/>
<path d="M50.0827 3V5.80001H52.0827V3H50.0827ZM49.0827 6.80001H12.4215V8.80001H49.0827V6.80001ZM11.4215 5.80001V3H9.42151V5.80001H11.4215ZM12.4215 2H17.4877V0H12.4215V2ZM25.0083 2H49.0827V0H25.0083V2ZM12.4215 6.80001C11.8692 6.80001 11.4215 6.35229 11.4215 5.80001H9.42151C9.42151 7.45686 10.7647 8.80001 12.4215 8.80001V6.80001ZM50.0827 5.80001C50.0827 6.35229 49.6349 6.80001 49.0827 6.80001V8.80001C50.7395 8.80001 52.0827 7.45686 52.0827 5.80001H50.0827ZM52.0827 3C52.0827 1.34314 50.7395 0 49.0827 0V2C49.6349 2 50.0827 2.44772 50.0827 3H52.0827ZM11.4215 3C11.4215 2.44772 11.8692 2 12.4215 2V0C10.7647 0 9.42151 1.34315 9.42151 3H11.4215Z" fill="#D2BB43"/>
<path d="M30.7523 12.6572L31.6506 12.2178C31.4828 11.8747 31.1342 11.6572 30.7523 11.6572C30.3704 11.6572 30.0219 11.8747 29.854 12.2178L30.7523 12.6572ZM33.6637 18.6087L32.7654 19.0481L33.009 19.5461L33.5604 19.6033L33.6637 18.6087ZM40.6697 19.3362L41.3156 20.0996C41.6215 19.8407 41.7434 19.4242 41.6252 19.0412C41.507 18.6583 41.1716 18.3829 40.773 18.3415L40.6697 19.3362ZM35.4631 23.7419L34.8171 22.9785L34.3561 23.3686L34.4867 23.9583L35.4631 23.7419ZM36.8816 30.143L36.4155 31.0277C36.7601 31.2092 37.1788 31.1742 37.4884 30.9378C37.798 30.7015 37.9422 30.3069 37.8579 29.9266L36.8816 30.143ZM30.7523 26.9144L31.2184 26.0296L30.7523 25.7842L30.2863 26.0296L30.7523 26.9144ZM24.6231 30.143L23.6467 29.9266C23.5625 30.3069 23.7067 30.7015 24.0162 30.9378C24.3258 31.1742 24.7445 31.2092 25.0891 31.0277L24.6231 30.143ZM26.0416 23.7419L27.0179 23.9583L27.1485 23.3686L26.6875 22.9785L26.0416 23.7419ZM20.835 19.3362L20.7317 18.3415C20.3331 18.3829 19.9977 18.6583 19.8794 19.0412C19.7612 19.4242 19.8831 19.8407 20.189 20.0996L20.835 19.3362ZM27.8409 18.6087L27.9442 19.6033L28.4956 19.5461L28.7392 19.0481L27.8409 18.6087ZM29.854 13.0967L32.7654 19.0481L34.562 18.1692L31.6506 12.2178L29.854 13.0967ZM33.5604 19.6033L40.5664 20.3308L40.773 18.3415L33.767 17.614L33.5604 19.6033ZM40.0237 18.5728L34.8171 22.9785L36.109 24.5053L41.3156 20.0996L40.0237 18.5728ZM34.4867 23.9583L35.9053 30.3593L37.8579 29.9266L36.4394 23.5255L34.4867 23.9583ZM37.3476 29.2582L31.2184 26.0296L30.2863 27.7992L36.4155 31.0277L37.3476 29.2582ZM30.2863 26.0296L24.157 29.2582L25.0891 31.0277L31.2184 27.7992L30.2863 26.0296ZM25.5994 30.3593L27.0179 23.9583L25.0653 23.5255L23.6467 29.9266L25.5994 30.3593ZM26.6875 22.9785L21.4809 18.5728L20.189 20.0996L25.3956 24.5053L26.6875 22.9785ZM20.9382 20.3308L27.9442 19.6033L27.7376 17.614L20.7317 18.3415L20.9382 20.3308ZM28.7392 19.0481L31.6506 13.0967L29.854 12.2178L26.9426 18.1692L28.7392 19.0481Z" fill="#D2BB43"/>
</svg>
