<svg width="62" height="69" viewBox="0 0 62 69" fill="none" xmlns="http://www.w3.org/2000/svg">
<path d="M46.8053 62.7667V58.4286C46.8053 56.2194 45.0145 54.4286 42.8053 54.4286H20.0615C17.8524 54.4286 16.0615 56.2195 16.0615 58.4286V62.7667" stroke="#D2BB43" stroke-width="2"/>
<rect x="12.103" y="63.2" width="38.6611" height="4.80001" rx="1" stroke="#D2BB43" stroke-width="2"/>
<rect x="25.3057" y="41.8286" width="11.8843" height="3.82858" rx="1" stroke="#D2BB43" stroke-width="2"/>
<path d="M20.9308 38.0084L20.231 38.7228L20.231 38.7228L20.9308 38.0084ZM19.652 36.7558L20.3517 36.0414H20.3517L19.652 36.7558ZM18.0934 39.1138C17.5411 39.1138 17.0934 39.5615 17.0934 40.1138C17.0934 40.6661 17.5411 41.1138 18.0934 41.1138V39.1138ZM18.9707 36.256L18.4994 37.138L18.4994 37.138L18.9707 36.256ZM13.8926 33.5428L13.3859 34.405L13.4034 34.4153L13.4213 34.4248L13.8926 33.5428ZM11.6133 32.2033L12.12 31.3411L11.6133 32.2033ZM6.71367 28.4538L6.01392 29.1682L6.71367 28.4538ZM5.54227 27.3064L6.24202 26.592H6.24202L5.54227 27.3064ZM2.54904 22.5519L1.60235 22.8741L2.54904 22.5519ZM1.99174 20.9142L1.0228 21.1615L1.03246 21.1994L1.04505 21.2364L1.99174 20.9142ZM1.46645 18.8561L0.497511 19.1034L1.46645 18.8561ZM1.16077 12.1846L2.10746 12.5068V12.5068L1.16077 12.1846ZM1.1886 12.1029L0.241911 11.7807L0.241911 11.7807L1.1886 12.1029ZM2.29446 10.6784L1.7477 9.84116L1.7477 9.84116L2.29446 10.6784ZM3.68784 24.9785L2.83511 25.5008L3.68784 24.9785ZM20.9308 39.763L20.231 39.0486L20.231 39.0486L20.9308 39.763ZM21.6305 37.294L20.3517 36.0414L18.9522 37.4701L20.231 38.7228L21.6305 37.294ZM18.0934 41.1138H20.0714V39.1138H18.0934V41.1138ZM19.4419 35.374L14.3638 32.6608L13.4213 34.4248L18.4994 37.138L19.4419 35.374ZM14.3992 32.6807L12.12 31.3411L11.1066 33.0654L13.3859 34.405L14.3992 32.6807ZM7.41343 27.7394L6.24202 26.592L4.84251 28.0208L6.01392 29.1682L7.41343 27.7394ZM3.49573 22.2298L2.93842 20.5921L1.04505 21.2364L1.60235 22.8741L3.49573 22.2298ZM2.96067 20.6669L2.43539 18.6088L0.497511 19.1034L1.0228 21.1615L2.96067 20.6669ZM2 15.1423V13.1561H0V15.1423H2ZM2.10746 12.5068L2.13528 12.425L0.241911 11.7807L0.214087 11.8625L2.10746 12.5068ZM3.80637 11.2285H8.93388V9.22852H3.80637V11.2285ZM8.93388 11.2285H14.8843V9.22852H8.93388V11.2285ZM2.13528 12.425C2.26238 12.0516 2.51091 11.7314 2.84123 11.5157L1.7477 9.84116C1.04314 10.3013 0.513002 10.9841 0.241911 11.7807L2.13528 12.425ZM2 13.1561C2 12.9353 2.0363 12.7159 2.10746 12.5068L0.214087 11.8625C0.0723265 12.2791 0 12.7161 0 13.1561H2ZM4.54058 24.4561C4.11106 23.7549 3.76064 23.0082 3.49573 22.2298L1.60235 22.8741C1.9149 23.7925 2.32835 24.6735 2.83511 25.5008L4.54058 24.4561ZM6.24202 26.592C5.58929 25.9526 5.01784 25.2353 4.54058 24.4561L2.83511 25.5008C3.39819 26.42 4.0724 27.2664 4.84251 28.0208L6.24202 26.592ZM20.0714 41.1138C20.6544 41.1138 21.2141 40.8853 21.6305 40.4774L20.231 39.0486C20.1884 39.0904 20.1311 39.1138 20.0714 39.1138V41.1138ZM20.3517 36.0414C20.0817 35.7769 19.7753 35.5521 19.4419 35.374L18.4994 37.138C18.6654 37.2267 18.8178 37.3385 18.9522 37.4701L20.3517 36.0414ZM12.12 31.3411C10.4105 30.3364 8.82995 29.1269 7.41343 27.7394L6.01392 29.1682C7.54666 30.6695 9.25685 31.9783 11.1066 33.0654L12.12 31.3411ZM20.231 38.7228C20.3223 38.8122 20.3223 38.9592 20.231 39.0486L21.6305 40.4774C22.5225 39.6037 22.5225 38.1677 21.6305 37.294L20.231 38.7228ZM2.43539 18.6088C2.14627 17.476 2 16.3115 2 15.1423H0C0 16.4783 0.167135 17.809 0.497511 19.1034L2.43539 18.6088ZM2.84123 11.5157C3.12823 11.3283 3.46359 11.2285 3.80637 11.2285V9.22852C3.07522 9.22852 2.35989 9.44139 1.7477 9.84116L2.84123 11.5157Z" fill="#D2BB43"/>
<path d="M41.0659 38.2246L40.3634 37.5129H40.3634L41.0659 38.2246ZM42.3454 36.9617L43.0478 37.6734L43.0478 37.6734L42.3454 36.9617ZM43.9066 39.3428C44.4589 39.3428 44.9066 39.7906 44.9066 40.3428C44.9066 40.8951 44.4589 41.3428 43.9066 41.3428V39.3428ZM43.0334 36.4533L42.5593 35.5728H42.5593L43.0334 36.4533ZM48.1074 33.7215L48.617 34.582L48.5995 34.5924L48.5815 34.602L48.1074 33.7215ZM50.377 32.3775L50.8865 33.2379L50.377 32.3775ZM55.2905 28.5894L55.9929 29.3011L55.2905 28.5894ZM56.4542 27.4408L55.7517 26.7291H55.7517L56.4542 27.4408ZM59.4497 22.6502L60.3971 22.9701L59.4497 22.6502ZM60.0083 20.9962L60.9777 21.2417L60.9681 21.2793L60.9557 21.3161L60.0083 20.9962ZM60.5334 18.9229L61.5028 19.1685L60.5334 18.9229ZM60.8398 12.2013L61.7872 11.8814L61.7872 11.8814L60.8398 12.2013ZM60.8088 12.1096L59.8614 12.4296V12.4296L60.8088 12.1096ZM59.7086 10.6839L59.1589 11.5193L59.1589 11.5193L59.7086 10.6839ZM58.3133 25.0896L59.1678 25.609H59.1678L58.3133 25.0896ZM41.0659 39.9861L40.3634 40.6978L40.3634 40.6978L41.0659 39.9861ZM40.3634 37.5129L41.6429 36.25L43.0478 37.6734L41.7683 38.9363L40.3634 37.5129ZM43.9066 41.3428H41.9352V39.3428H43.9066V41.3428ZM42.5593 35.5728L47.6334 32.841L48.5815 34.602L43.5074 37.3338L42.5593 35.5728ZM47.5979 32.8611L49.8674 31.5171L50.8865 33.2379L48.617 34.582L47.5979 32.8611ZM54.588 27.8777L55.7517 26.7291L57.1567 28.1525L55.9929 29.3011L54.588 27.8777ZM58.5022 22.3302L59.0608 20.6762L60.9557 21.3161L60.3971 22.9701L58.5022 22.3302ZM59.0389 20.7506L59.564 18.6774L61.5028 19.1685L60.9777 21.2417L59.0389 20.7506ZM60 15.1802V13.1764H62V15.1802H60ZM59.8924 12.5213L59.8614 12.4296L61.7563 11.7897L61.7872 11.8814L59.8924 12.5213ZM58.1881 11.2285H53.0661V9.22852H58.1881V11.2285ZM53.0661 11.2285H47.1157V9.22852H53.0661V11.2285ZM59.8614 12.4296C59.7353 12.0563 59.4881 11.7359 59.1589 11.5193L60.2583 9.84855C60.9602 10.3104 61.4874 10.9937 61.7563 11.7897L59.8614 12.4296ZM60 13.1764C60 12.9536 59.9636 12.7324 59.8924 12.5213L61.7872 11.8814C61.9281 12.2986 62 12.736 62 13.1764H60ZM57.4588 24.5701C57.888 23.8642 58.2379 23.113 58.5022 22.3302L60.3971 22.9701C60.0857 23.8923 59.6734 24.7773 59.1678 25.609L57.4588 24.5701ZM55.7517 26.7291C56.4071 26.0822 56.9805 25.3571 57.4588 24.5701L59.1678 25.609C58.6043 26.5361 57.9288 27.3903 57.1567 28.1525L55.7517 26.7291ZM41.9352 41.3428C41.3468 41.3428 40.7821 41.1111 40.3634 40.6978L41.7683 39.2744C41.8128 39.3182 41.8727 39.3428 41.9352 39.3428V41.3428ZM41.6429 36.25C41.9146 35.9818 42.2232 35.7538 42.5593 35.5728L43.5074 37.3338C43.3389 37.4246 43.1841 37.5389 43.0478 37.6734L41.6429 36.25ZM49.8674 31.5171C51.5833 30.5008 53.1686 29.2787 54.588 27.8777L55.9929 29.3011C54.4576 30.8166 52.7427 32.1386 50.8865 33.2379L49.8674 31.5171ZM41.7683 38.9363C41.6741 39.0293 41.6741 39.1814 41.7683 39.2744L40.3634 40.6978C39.4758 39.8217 39.4758 38.389 40.3634 37.5129L41.7683 38.9363ZM59.564 18.6774C59.8535 17.5342 60 16.3595 60 15.1802H62C62 16.5251 61.833 17.8647 61.5028 19.1685L59.564 18.6774ZM59.1589 11.5193C58.8707 11.3296 58.5331 11.2285 58.1881 11.2285V9.22852C58.9239 9.22852 59.6436 9.44407 60.2583 9.84855L59.1589 11.5193Z" fill="#D2BB43"/>
<path d="M23.3152 54.2668L23.3152 52.8764C23.3152 51.8383 23.7279 50.8377 24.465 50.0891L24.5562 49.9964L25.6816 49.1246C26.0241 48.8593 26.3213 48.5416 26.5619 48.1839L27.0383 47.4756L27.6114 46.3334" stroke="#D2BB43" stroke-width="2" stroke-linecap="round" stroke-linejoin="round"/>
<path d="M39.2924 54.2668L39.2924 53.2547C39.2924 52.2097 38.8741 51.203 38.1283 50.453L38.068 50.3924L36.9734 49.5568C36.623 49.2893 36.319 48.9672 36.0736 48.6035L35.6192 47.9302L34.7856 46.3057" stroke="#D2BB43" stroke-width="2" stroke-linecap="round" stroke-linejoin="round"/>
<path d="M24.3067 42.2292C24.7002 42.6167 25.3334 42.6118 25.7208 42.2182C26.1083 41.8247 26.1034 41.1915 25.7098 40.8041L24.3067 42.2292ZM22.3223 38.8722L21.575 39.5367C21.5897 39.5532 21.6049 39.5693 21.6207 39.5848L22.3223 38.8722ZM21.9323 38.4336L21.185 39.098H21.185L21.9323 38.4336ZM15.4819 16.7649L16.4803 16.7085L15.4819 16.7649ZM15.3801 14.962L16.3786 14.9056L16.3778 14.8929L15.3801 14.962ZM15.8819 7.73086C15.8437 7.17989 15.3662 6.76417 14.8152 6.80231C14.2642 6.84046 13.8485 7.31803 13.8867 7.869L15.8819 7.73086ZM17.3636 30.5768L16.3865 30.7896C16.3945 30.8261 16.4045 30.8622 16.4165 30.8976L17.3636 30.5768ZM25.7098 40.8041L23.0239 38.1596L21.6207 39.5848L24.3067 42.2292L25.7098 40.8041ZM23.0696 38.2077L22.6796 37.7691L21.185 39.098L21.575 39.5367L23.0696 38.2077ZM16.4803 16.7085L16.3786 14.9056L14.3817 15.0183L14.4835 16.8212L16.4803 16.7085ZM16.3778 14.8929L15.8819 7.73086L13.8867 7.869L14.3825 15.031L16.3778 14.8929ZM16.4165 30.8976C17.4412 33.9227 19.0627 36.7112 21.185 39.098L22.6796 37.7691C20.7352 35.5823 19.2496 33.0275 18.3108 30.256L16.4165 30.8976ZM18.3407 30.364C17.3617 25.8683 16.7397 21.3022 16.4803 16.7085L14.4835 16.8212C14.7488 21.5202 15.3851 26.1909 16.3865 30.7896L18.3407 30.364Z" fill="#D2BB43"/>
<path d="M45.1324 30.6286L46.1093 30.8423C46.1012 30.879 46.0911 30.9152 46.079 30.9507L45.1324 30.6286ZM45.6431 23.6148C45.7611 23.0753 46.2941 22.7336 46.8337 22.8517C47.3732 22.9697 47.7149 23.5027 47.5969 24.0423L45.6431 23.6148ZM38.1406 42.2364C37.7431 42.6198 37.1101 42.6084 36.7266 42.2109C36.3432 41.8134 36.3546 41.1804 36.7521 40.7969L38.1406 42.2364ZM40.1737 38.8857L40.9195 39.5519C40.903 39.5704 40.8858 39.5882 40.868 39.6054L40.1737 38.8857ZM40.5685 38.4437L41.3143 39.1099L40.5685 38.4437ZM47.1158 15.0857L46.1174 15.0291L46.1178 15.0234L47.1158 15.0857ZM46.5723 7.73767C46.6066 7.18645 47.0814 6.76748 47.6326 6.80187C48.1838 6.83625 48.6028 7.31097 48.5684 7.86219L46.5723 7.73767ZM47.9903 17.328C47.959 17.8794 47.4866 18.3011 46.9352 18.2698C46.3838 18.2385 45.9622 17.7662 45.9935 17.2148L47.9903 17.328ZM44.1555 30.4148L45.6431 23.6148L47.5969 24.0423L46.1093 30.8423L44.1555 30.4148ZM36.7521 40.7969L39.4794 38.166L40.868 39.6054L38.1406 42.2364L36.7521 40.7969ZM39.4279 38.2195L39.8227 37.7775L41.3143 39.1099L40.9195 39.5519L39.4279 38.2195ZM46.1178 15.0234L46.5723 7.73767L48.5684 7.86219L48.1139 15.1479L46.1178 15.0234ZM45.9935 17.2148L46.1174 15.0291L48.1142 15.1423L47.9903 17.328L45.9935 17.2148ZM46.079 30.9507C45.0541 33.9625 43.4337 36.7373 41.3143 39.1099L39.8227 37.7775C41.7634 35.605 43.2472 33.0642 44.1857 30.3064L46.079 30.9507Z" fill="#D2BB43"/>
<path d="M50.0825 3V5.80001H52.0825V3H50.0825ZM49.0825 6.80001H12.4214V8.80001H49.0825V6.80001ZM11.4214 5.80001V3H9.42139V5.80001H11.4214ZM12.4214 2H17.4875V0H12.4214V2ZM25.0082 2H49.0825V0H25.0082V2ZM12.4214 6.80001C11.8691 6.80001 11.4214 6.35229 11.4214 5.80001H9.42139C9.42139 7.45686 10.7645 8.80001 12.4214 8.80001V6.80001ZM50.0825 5.80001C50.0825 6.35229 49.6348 6.80001 49.0825 6.80001V8.80001C50.7394 8.80001 52.0825 7.45686 52.0825 5.80001H50.0825ZM52.0825 3C52.0825 1.34314 50.7394 0 49.0825 0V2C49.6348 2 50.0825 2.44772 50.0825 3H52.0825ZM11.4214 3C11.4214 2.44772 11.8691 2 12.4214 2V0C10.7645 0 9.42139 1.34315 9.42139 3H11.4214Z" fill="#D2BB43"/>
<path d="M30.7523 12.6572L31.6506 12.2178C31.4828 11.8747 31.1342 11.6572 30.7523 11.6572C30.3704 11.6572 30.0219 11.8747 29.854 12.2178L30.7523 12.6572ZM33.6637 18.6087L32.7654 19.0481L33.009 19.5461L33.5604 19.6033L33.6637 18.6087ZM40.6697 19.3362L41.3156 20.0996C41.6215 19.8407 41.7434 19.4242 41.6252 19.0412C41.507 18.6583 41.1716 18.3829 40.773 18.3415L40.6697 19.3362ZM35.4631 23.7419L34.8171 22.9785L34.3561 23.3686L34.4867 23.9583L35.4631 23.7419ZM36.8816 30.143L36.4155 31.0277C36.7601 31.2092 37.1788 31.1742 37.4884 30.9378C37.798 30.7015 37.9422 30.3069 37.8579 29.9266L36.8816 30.143ZM30.7523 26.9144L31.2184 26.0296L30.7523 25.7842L30.2863 26.0296L30.7523 26.9144ZM24.6231 30.143L23.6467 29.9266C23.5625 30.3069 23.7067 30.7015 24.0162 30.9378C24.3258 31.1742 24.7445 31.2092 25.0891 31.0277L24.6231 30.143ZM26.0416 23.7419L27.0179 23.9583L27.1485 23.3686L26.6875 22.9785L26.0416 23.7419ZM20.835 19.3362L20.7317 18.3415C20.3331 18.3829 19.9977 18.6583 19.8794 19.0412C19.7612 19.4242 19.8831 19.8407 20.189 20.0996L20.835 19.3362ZM27.8409 18.6087L27.9442 19.6033L28.4956 19.5461L28.7392 19.0481L27.8409 18.6087ZM29.854 13.0967L32.7654 19.0481L34.562 18.1692L31.6506 12.2178L29.854 13.0967ZM33.5604 19.6033L40.5664 20.3308L40.773 18.3415L33.767 17.614L33.5604 19.6033ZM40.0237 18.5728L34.8171 22.9785L36.109 24.5053L41.3156 20.0996L40.0237 18.5728ZM34.4867 23.9583L35.9053 30.3593L37.8579 29.9266L36.4394 23.5255L34.4867 23.9583ZM37.3476 29.2582L31.2184 26.0296L30.2863 27.7992L36.4155 31.0277L37.3476 29.2582ZM30.2863 26.0296L24.157 29.2582L25.0891 31.0277L31.2184 27.7992L30.2863 26.0296ZM25.5994 30.3593L27.0179 23.9583L25.0653 23.5255L23.6467 29.9266L25.5994 30.3593ZM26.6875 22.9785L21.4809 18.5728L20.189 20.0996L25.3956 24.5053L26.6875 22.9785ZM20.9382 20.3308L27.9442 19.6033L27.7376 17.614L20.7317 18.3415L20.9382 20.3308ZM28.7392 19.0481L31.6506 13.0967L29.854 12.2178L26.9426 18.1692L28.7392 19.0481Z" fill="#D2BB43"/>
</svg>
